<?xml version="1.0" encoding="utf-8"?>
<svg viewBox="4.131 7.67 561.197 512.683" width="561.197" height="512.683" xmlns="http://www.w3.org/2000/svg">
  <g transform="matrix(1, 0, 0, 1, -0.871954, 0)">
    <path fill="#657F91" d="M565.8,211.1c0.4,5,0.5,10.1,0.3,15.2c-0.2,5.1-0.7,10.1-1.5,15.1c-0.8,5-1.9,9.9-3.2,14.8 c-1.4,4.9-3.1,9.6-5.1,14.3c-2.1,4.7-4.4,9.2-7.1,13.5c-2.7,4.3-5.8,8.3-9.2,12.1c-3.4,3.8-7.2,7.3-11.3,10.3 c-4.1,3-8.5,5.6-13.2,7.6c-4.7,2-9.6,3.5-14.6,4.2s-10.2,0.9-15.3,0.3c-5.1-0.6-10.1-1.9-14.8-3.9c-4.7-2-9.1-4.6-13.1-7.7 c-4-3.1-7.5-6.8-10.6-10.9c-3.1-4.1-5.7-8.5-7.8-13.2c-2.1-4.7-3.7-9.5-4.8-14.5s-1.8-10-2.1-15.1c-0.3-5.1-0.1-10.2,0.4-15.2 c0.5-5,1.3-10,2.5-14.9c1.2-4.9,2.6-9.8,4.4-14.5c1.8-4.8,3.8-9.4,6.1-13.9c2.3-4.5,4.9-8.9,7.7-13.1s5.9-8.2,9.3-12 c3.3-3.8,7-7.4,10.9-10.6c3.9-3.2,8.1-6.2,12.6-8.6c4.5-2.4,9.3-4.4,14.2-5.6c5-1.2,10.1-1.8,15.2-1.3c5.1,0.4,10.1,1.8,14.7,3.9 c4.6,2.1,8.9,5.1,12.6,8.6c3.7,3.5,6.9,7.5,9.6,11.9s4.9,8.9,6.7,13.7c1.8,4.7,3.2,9.6,4.3,14.6 C564.6,201.1,565.4,206.1,565.8,211.1z M544,221.5c0-3.6-0.1-7.1-0.5-10.7s-0.9-7.1-1.7-10.5c-0.8-3.5-1.8-6.9-3.1-10.2 c-1.3-3.3-2.9-6.5-4.9-9.5c-2-3-4.3-5.8-7.1-8.1s-5.9-4.1-9.5-5c-3.5-0.9-7.1-1-10.7-0.4c-3.5,0.6-7,1.9-10.2,3.5 c-3.2,1.6-6.2,3.7-8.9,5.9c-2.8,2.3-5.4,4.8-7.7,7.4c-2.4,2.6-4.6,5.5-6.7,8.4c-2,2.9-3.9,6-5.6,9.1c-1.7,3.1-3.2,6.3-4.6,9.6 c-1.4,3.3-2.6,6.7-3.6,10.1c-1,3.4-1.9,6.9-2.5,10.4s-1.1,7-1.3,10.6c-0.2,3.6-0.2,7.1,0.1,10.7c0.3,3.6,0.9,7.1,1.7,10.6 c0.9,3.5,2,6.9,3.5,10.1c1.5,3.2,3.4,6.3,5.6,9.1c2.3,2.8,4.9,5.3,7.9,7.3c3,2,6.2,3.5,9.8,4.5c3.5,0.9,7.1,1.2,10.7,0.8 s7.1-1.2,10.4-2.6c3.3-1.4,6.4-3.1,9.3-5.2c2.9-2.1,5.6-4.5,8-7.1c2.4-2.6,4.7-5.4,6.6-8.4c2-3,3.8-6.1,5.3-9.3 c1.5-3.2,2.9-6.5,4.1-9.9c1.2-3.4,2.1-6.8,2.9-10.3c0.8-3.5,1.4-7,1.8-10.5C543.7,228.6,543.9,225.1,544,221.5z"/>
    <path fill="#657F91" d="M449.3,89c1.1,6,1.8,12.1,2.2,18.3c0.4,6.1,0.4,12.3,0.1,18.4c-0.4,6.1-1.1,12.2-2.2,18.2 c-1.1,6-2.6,12-4.6,17.9c-2,5.8-4.4,11.5-7.2,17c-2.9,5.4-6.2,10.6-10,15.5c-3.8,4.9-8.2,9.3-12.9,13.3s-10,7.3-15.5,10 s-11.5,4.6-17.6,5.7c-6.1,1.1-12.3,1.4-18.5,0.8c-3.1-0.3-6.1-0.9-9.1-1.6c-3-0.7-5.9-1.7-8.8-2.9c-2.9-1.2-5.6-2.5-8.3-4 c-2.7-1.5-5.2-3.2-7.7-5.1c-4.9-3.7-9.3-8-13.2-12.8c-3.9-4.8-7.3-10-10.1-15.5c-2.8-5.5-5.1-11.2-6.8-17.1 c-1.8-5.9-3-11.9-3.8-18s-1.2-12.2-1.1-18.3c0.1-6.1,0.5-12.2,1.3-18.3c0.8-6.1,2-12.2,3.6-18.1c1.5-5.9,3.4-11.8,5.6-17.5 c2.2-5.7,4.8-11.4,7.7-16.8c2.9-5.4,6.2-10.6,9.8-15.6c3.6-4.9,7.6-9.7,12-14c4.4-4.3,9.3-8.1,14.5-11.4c5.3-3.2,11-5.8,17-7.3 c6-1.6,12.2-2.1,18.4-1.5c6.2,0.6,12.2,2.5,17.8,5.2c5.6,2.7,10.7,6.3,15.2,10.5s8.5,8.9,12,14s6.6,10.5,9.2,16.1 c2.6,5.6,4.8,11.3,6.6,17.2C446.8,77,448.2,83,449.3,89z M429.2,122.6c0.5-9.3,0.1-18.6-1.3-27.8s-3.9-18.1-7.5-26.7 c-1.8-4.3-3.8-8.5-6.3-12.4s-5.2-7.7-8.4-11.1c-3.2-3.4-6.9-6.4-10.9-8.7c-4.1-2.3-8.5-3.8-13.2-4.3c-4.7-0.5-9.4,0.3-13.8,1.8 c-4.4,1.5-8.6,3.8-12.3,6.6c-3.7,2.8-7.2,5.9-10.3,9.4s-5.9,7.2-8.5,11.2c-2.6,3.9-4.8,8-6.9,12.1c-2,4.2-3.8,8.4-5.4,12.8 c-1.5,4.4-2.9,8.8-4,13.3c-1.1,4.5-1.9,9.1-2.5,13.7c-1.2,9.2-1.4,18.5-0.4,27.7c1,9.2,3.2,18.3,7,26.9c1.9,4.3,4.2,8.4,6.8,12.2 c2.7,3.8,5.8,7.3,9.3,10.4c3.5,3.1,7.5,5.7,11.8,7.6c4.3,1.9,8.8,3.2,13.5,3.6s9.3,0,13.8-1.1c4.5-1.1,8.9-2.9,13-5.3 c4-2.4,7.7-5.3,11.1-8.5c3.3-3.3,6.3-6.9,8.9-10.7c2.6-3.8,4.9-7.9,6.9-12.1c2-4.2,3.6-8.6,4.9-13c1.3-4.4,2.4-9,3.2-13.5 C428.4,131.8,428.9,127.2,429.2,122.6z"/>
    <path fill="#657F91" d="M276.1,110.3c0.8,6.1,1.3,12.2,1.3,18.3c0.1,6.1-0.3,12.2-1.1,18.3c-0.8,6.1-2,12.1-3.8,18 c-1.8,5.9-4,11.6-6.8,17.1c-2.8,5.5-6.2,10.7-10.1,15.5s-8.3,9.1-13.2,12.8c-2.5,1.9-5,3.5-7.7,5.1c-2.7,1.5-5.4,2.8-8.3,4 c-2.9,1.2-5.8,2.1-8.8,2.9c-3,0.7-6,1.3-9.1,1.6c-6.1,0.6-12.3,0.3-18.4-0.8c-6.1-1.1-12.1-3-17.6-5.7s-10.8-6-15.5-10 s-9.1-8.4-12.9-13.3c-3.8-4.9-7.2-10-10-15.5c-2.9-5.4-5.3-11.1-7.2-17c-2-5.9-3.5-11.8-4.6-17.9c-1.1-6-1.8-12.1-2.2-18.2 c-0.4-6.1-0.3-12.3,0-18.4c0.4-6.1,1.1-12.3,2.2-18.3c1.1-6,2.5-12,4.4-17.9c1.8-5.9,4-11.6,6.7-17.2c2.6-5.6,5.6-11,9.2-16.1 s7.5-9.8,12-14c4.5-4.2,9.7-7.8,15.2-10.5c5.6-2.7,11.6-4.6,17.8-5.2c6.2-0.6,12.4,0,18.4,1.5c6,1.6,11.7,4.1,17,7.3 c5.3,3.2,10.1,7.1,14.5,11.4c4.4,4.3,8.4,9,12,14c3.6,4.9,6.9,10.2,9.8,15.6c2.9,5.4,5.5,11,7.7,16.8c2.2,5.7,4.1,11.6,5.7,17.5 C274.1,98.1,275.3,104.2,276.1,110.3z M247,167c3.8-8.6,6-17.7,7-26.9c1-9.2,0.8-18.6-0.4-27.7c-0.6-4.6-1.4-9.2-2.5-13.7 c-1.1-4.5-2.4-9-4-13.3c-1.6-4.4-3.3-8.6-5.3-12.8c-2-4.2-4.3-8.2-6.8-12.1c-2.6-3.9-5.4-7.7-8.5-11.2c-3.1-3.5-6.5-6.7-10.3-9.4 c-3.7-2.7-7.9-5.1-12.4-6.6c-4.4-1.5-9.1-2.2-13.8-1.8c-4.7,0.4-9.2,2-13.2,4.3s-7.8,5.3-10.9,8.7c-3.2,3.4-6,7.2-8.4,11.1 s-4.5,8.2-6.3,12.4c-3.6,8.6-6,17.5-7.5,26.7s-1.9,18.5-1.3,27.8c0.3,4.6,0.8,9.3,1.6,13.8c0.8,4.6,1.8,9.1,3.2,13.5 c1.3,4.4,3,8.8,4.9,13s4.2,8.3,6.8,12.1s5.6,7.5,8.9,10.7c3.3,3.3,7,6.2,11.1,8.5c4.1,2.4,8.4,4.2,13,5.3s9.2,1.5,13.8,1.1 s9.2-1.7,13.5-3.6c4.3-1.9,8.3-4.5,11.8-7.6c3.5-3.1,6.6-6.6,9.3-10.4C242.9,175.4,245.2,171.3,247,167z"/>
    <path fill="#657F91" d="M234.1,236.8c2.2-1.1,4.4-2,6.6-3c2.3-0.9,4.5-1.8,6.9-2.5c0,0,0,0,0,0c0,0,0,0,0,0 c0.5-0.2,1.1-0.4,1.6-0.5c0.5-0.2,1.1-0.3,1.6-0.5c0.9-0.3,1.8-0.5,2.6-0.8c0.9-0.2,1.8-0.5,2.7-0.7c0.5-0.1,1-0.2,1.5-0.4 c0.5-0.1,1-0.2,1.5-0.3c0.6-0.1,1.2-0.3,1.9-0.4c0.6-0.1,1.3-0.3,1.9-0.4c0.4-0.1,0.8-0.1,1.2-0.2c0.4-0.1,0.8-0.1,1.2-0.2 c0.5-0.1,0.9-0.2,1.4-0.2c0.5-0.1,0.9-0.1,1.4-0.2c0.3-0.1,0.7-0.1,1-0.2c0.3-0.1,0.7-0.1,1-0.1c0.5-0.1,1-0.1,1.5-0.2 s1-0.1,1.5-0.2c0.2,0,0.4,0,0.5-0.1c0.2,0,0.3,0,0.5,0c0.5-0.1,1.1-0.1,1.6-0.2c0.5-0.1,1.1-0.1,1.6-0.1c0.2,0,0.3,0,0.5,0 c0.2,0,0.3,0,0.5,0c0.5,0,1-0.1,1.4-0.1c0.5,0,1-0.1,1.4-0.1c0.3,0,0.7,0,1,0c0.3,0,0.7,0,1,0c0.7,0,1.3,0,2-0.1c0.7,0,1.3,0,2,0 c1.3,0,2.6,0,4,0s2.6,0.1,3.9,0.2c0.8,0,1.6,0.1,2.4,0.1c0.8,0.1,1.6,0.1,2.4,0.2c0.6,0,1.2,0.1,1.8,0.2c0.6,0.1,1.2,0.1,1.7,0.2 c1,0.1,1.9,0.2,2.9,0.3c1,0.1,1.9,0.3,2.9,0.4c1.2,0.2,2.3,0.4,3.5,0.6s2.3,0.4,3.5,0.6c0.1,0,0.1,0,0.2,0c0,0,0.1,0,0.2,0 c1.1,0.2,2.2,0.5,3.3,0.7c1.1,0.2,2.2,0.5,3.2,0.8c0,0,0,0,0,0l0,0c0.6,0.2,1.2,0.3,1.7,0.5s1.1,0.3,1.7,0.5 c0.6,0.2,1.2,0.3,1.7,0.5s1.1,0.3,1.7,0.5c0.4,0.1,0.8,0.2,1.2,0.3c0.4,0.1,0.8,0.2,1.2,0.4c0.4,0.1,0.8,0.2,1.2,0.4 c0.4,0.1,0.8,0.3,1.1,0.4c0.3,0.1,0.7,0.2,1,0.3s0.7,0.2,1,0.4c1.8,0.6,3.5,1.2,5.2,1.9c1.7,0.7,3.5,1.3,5.2,2 c0.4,0.2,0.8,0.3,1.2,0.5c0.4,0.2,0.8,0.4,1.2,0.5c0.8,0.3,1.6,0.7,2.5,1.1c0.8,0.4,1.6,0.7,2.4,1.1c0.7,0.3,1.3,0.6,2,0.9 s1.3,0.6,1.9,0.9c0.7,0.4,1.5,0.7,2.2,1.1c0.7,0.4,1.5,0.8,2.2,1.1c0.2,0.1,0.5,0.3,0.8,0.4c0.3,0.1,0.5,0.3,0.8,0.4 c0.6,0.3,1.1,0.6,1.7,0.9c0.6,0.3,1.1,0.6,1.7,1c0.4,0.2,0.8,0.4,1.2,0.6c0.4,0.2,0.8,0.4,1.2,0.7c0.8,0.5,1.6,0.9,2.5,1.4 c0.8,0.5,1.6,1,2.4,1.5c1.6,1,3.1,1.9,4.6,2.9c1.5,1,3,2,4.5,3c1.4,1,2.9,2.1,4.3,3.1c1.4,1,2.9,2.1,4.3,3.1 c3.1,2.5,6.2,5,9.3,7.6c3.1,2.6,6.1,5.2,9,7.9c0.2,0.2,0.4,0.4,0.7,0.6c0.2,0.2,0.4,0.4,0.6,0.6c1.3,1.2,2.5,2.5,3.8,3.7 c1.2,1.3,2.5,2.5,3.7,3.8c1,1.1,2.1,2.2,3.1,3.3s2,2.3,3,3.4c0.8,1,1.6,1.9,2.4,2.9c0.8,1,1.6,2,2.4,3c0.6,0.8,1.3,1.6,1.9,2.4 c0.6,0.8,1.2,1.6,1.9,2.4c0.5,0.6,1,1.3,1.4,2s1,1.3,1.4,2c0.5,0.6,0.9,1.3,1.4,1.9c0.5,0.7,0.9,1.3,1.3,2 c1.2,1.8,2.3,3.5,3.5,5.3s2.2,3.6,3.3,5.4c1.1,1.9,2.2,3.8,3.3,5.8s2.1,3.9,3.1,5.9c1.1,2.2,2.2,4.4,3.2,6.6c1,2.2,2,4.5,2.9,6.8 c1,2.5,2,5,2.9,7.5c0.9,2.5,1.8,5.1,2.6,7.6c0.8,2.6,1.6,5.2,2.3,7.8c0.7,2.6,1.3,5.2,1.9,7.9c0.6,2.6,1,5.2,1.5,7.9 c0.4,2.6,0.8,5.3,1.1,7.9c0.3,2.6,0.5,5.2,0.6,7.8c0.1,2.6,0.2,5.2,0.2,7.9c0,2.6-0.1,5.2-0.3,7.8c-0.2,2.6-0.4,5.2-0.7,7.7 c-0.3,2.5-0.7,5.1-1.2,7.6c-0.5,2.5-1,5-1.7,7.5c-0.1,0.4-0.2,0.7-0.3,1.1c-0.1,0.4-0.2,0.7-0.3,1.1c-0.4,1.4-0.8,2.7-1.2,4.1 s-0.9,2.7-1.4,4c-0.4,1-0.8,2.1-1.2,3.1c-0.4,1-0.8,2-1.3,3.1c0,0,0,0.1,0,0.1c0,0,0,0.1-0.1,0.1c-0.4,0.9-0.8,1.7-1.2,2.5 s-0.8,1.7-1.2,2.5c-0.9,1.7-1.8,3.4-2.8,5c-1,1.6-2,3.2-3.1,4.8c-1.1,1.6-2.2,3.1-3.4,4.6c-1.2,1.5-2.4,3-3.7,4.4 c-1.3,1.4-2.6,2.8-4,4.2s-2.7,2.7-4.2,3.9c-1.4,1.3-2.9,2.5-4.4,3.7c-1.5,1.2-3,2.3-4.6,3.4s-3.2,2.2-4.8,3.2s-3.3,2-4.9,2.9 c-1.7,0.9-3.3,1.8-5,2.6c-1.7,0.8-3.4,1.6-5.2,2.3c-1.7,0.7-3.4,1.4-5.2,2s-3.5,1.2-5.3,1.7c-1.8,0.5-3.5,1-5.3,1.4 c-1.8,0.4-3.6,0.8-5.4,1.2c-1.2,0.2-2.4,0.4-3.6,0.6c-1.2,0.2-2.4,0.4-3.6,0.5c-1.2,0.2-2.5,0.3-3.7,0.4s-2.5,0.2-3.8,0.3 c-1.5,0.1-2.9,0.1-4.4,0.2c-1.5,0-2.9,0-4.4,0c-1.7,0-3.3-0.1-5-0.2c-1.7-0.1-3.3-0.2-5-0.4c-1.9-0.2-3.7-0.4-5.6-0.6 c-1.9-0.3-3.7-0.6-5.6-0.9c-0.4-0.1-0.8-0.1-1.3-0.2c-0.4-0.1-0.8-0.2-1.3-0.2c-1.7-0.4-3.3-0.7-5-1.1c-1.7-0.4-3.3-0.8-5-1.3 c-1.8-0.5-3.7-1.1-5.5-1.7c-1.8-0.6-3.6-1.2-5.5-1.9c-1.8-0.7-3.6-1.4-5.3-2.1s-3.5-1.5-5.3-2.3c-1.1-0.5-2.3-1.1-3.4-1.6 c-1.1-0.5-2.3-1.1-3.4-1.7c0,0,0,0-0.1,0s0,0-0.1,0c-1-0.5-1.9-1-2.8-1.4c-0.9-0.5-1.8-1-2.8-1.5c-0.8-0.4-1.5-0.9-2.3-1.4 c-0.8-0.5-1.5-0.9-2.3-1.4l-0.3,0.1l-0.3,0.1c-0.3,0.2-0.6,0.4-0.9,0.6s-0.6,0.4-0.9,0.6c-10.4,6.1-21.4,11.3-32.7,15.2 c-11.3,4-23.1,6.7-35,8c-17.2,1.8-34.8,0.4-51.2-4.5c-16.4-4.9-31.4-13.3-43.5-25.8c-1.4-1.6-2.8-3.2-4.2-4.8s-2.7-3.2-4-4.9 c0,0,0,0,0-0.1c0,0,0,0-0.1-0.1c-0.7-1-1.4-1.9-2.1-2.9s-1.3-2-2-3c-0.8-1.4-1.6-2.7-2.4-4.1s-1.5-2.8-2.2-4.2 c-0.7-1.4-1.3-2.8-2-4.2c-0.6-1.4-1.2-2.8-1.8-4.3c-0.7-1.8-1.4-3.7-2-5.6s-1.2-3.8-1.8-5.7c-0.5-1.8-1-3.7-1.4-5.6 c-0.4-1.9-0.8-3.7-1.1-5.6c-0.3-1.8-0.6-3.6-0.8-5.4c-0.2-1.8-0.5-3.6-0.6-5.5c-0.2-2.6-0.4-5.1-0.5-7.7c-0.1-2.6-0.1-5.2-0.1-7.7 c0.1-2.4,0.2-4.8,0.3-7.1c0.2-2.4,0.4-4.7,0.7-7.1c0.1-0.5,0.1-1.1,0.2-1.6c0.1-0.5,0.1-1.1,0.2-1.6c0.2-1.1,0.3-2.1,0.5-3.2 c0.2-1,0.4-2.1,0.6-3.1c0-0.1,0-0.1,0-0.2c0-0.1,0-0.1,0-0.2c0.1-0.5,0.2-1,0.3-1.5c0.1-0.5,0.2-1,0.3-1.5c0.1-0.7,0.3-1.3,0.4-2 c0.2-0.7,0.3-1.3,0.5-2c0.1-0.3,0.1-0.6,0.2-0.9s0.1-0.6,0.2-0.9c0.1-0.5,0.2-1,0.4-1.4s0.3-0.9,0.4-1.4c0.1-0.5,0.3-0.9,0.4-1.4 c0.1-0.5,0.3-1,0.4-1.4c0.1-0.5,0.3-1,0.4-1.4c0.1-0.5,0.3-1,0.4-1.4c0.5-1.4,0.9-2.9,1.4-4.3c0.5-1.4,1-2.8,1.5-4.3 c0.6-1.6,1.3-3.3,1.9-4.9c0.7-1.6,1.3-3.2,2-4.8c0.6-1.4,1.2-2.7,1.9-4.1c0.6-1.3,1.3-2.7,1.9-4c0.3-0.6,0.5-1.1,0.8-1.6 c0.3-0.5,0.6-1.1,0.8-1.6c0.3-0.6,0.6-1.2,0.9-1.8s0.7-1.2,1-1.8c0.2-0.5,0.5-0.9,0.8-1.4c0.3-0.5,0.5-0.9,0.8-1.4 c0.3-0.6,0.6-1.1,0.9-1.7c0.3-0.5,0.6-1.1,1-1.6c0.5-0.9,1-1.7,1.6-2.6c0.5-0.9,1.1-1.7,1.6-2.6c0.6-0.8,1.1-1.7,1.7-2.5 s1.1-1.7,1.7-2.5c3.3-4.8,6.8-9.5,10.4-14.1c3.7-4.6,7.5-9,11.5-13.2c0.2-0.3,0.5-0.5,0.7-0.8c0.3-0.3,0.5-0.5,0.8-0.8 c0.7-0.7,1.4-1.5,2.2-2.2s1.5-1.4,2.2-2.1c0.7-0.7,1.5-1.4,2.2-2.1c0.7-0.7,1.5-1.4,2.3-2.1c0.8-0.7,1.5-1.4,2.3-2 c0.8-0.7,1.5-1.3,2.3-2c0.8-0.7,1.6-1.4,2.4-2.1s1.6-1.4,2.5-2c1-0.8,1.9-1.6,2.9-2.3s2-1.5,3-2.3c1.2-0.9,2.3-1.7,3.5-2.6 c1.2-0.8,2.4-1.7,3.6-2.5c1.4-1,2.9-1.9,4.3-2.8c1.5-0.9,2.9-1.9,4.4-2.7c1.7-1,3.4-2,5.1-3c1.7-1,3.4-1.9,5.1-2.8 c1.9-1,3.9-2,5.8-2.9s3.9-1.8,6-2.7c1.9-0.8,3.8-1.6,5.7-2.3s3.8-1.5,5.8-2.2c1.1-0.7,2.2-1.3,3.4-1.9 C231.7,237.9,232.9,237.3,234.1,236.8z M235.3,450.2c-0.3-0.3-0.7-0.5-1-0.8c-0.3-0.3-0.7-0.6-1-0.8c-0.2-0.1-0.3-0.3-0.5-0.4 c-0.2-0.1-0.3-0.3-0.5-0.4c-0.6-0.5-1.1-1-1.6-1.5c-0.5-0.5-1.1-1-1.6-1.5c-0.3-0.3-0.5-0.5-0.8-0.8c-0.3-0.3-0.5-0.5-0.8-0.8 c-1.3-1.2-2.5-2.5-3.7-3.8c-1.2-1.3-2.4-2.6-3.6-3.9c-0.1-0.1-0.2-0.2-0.3-0.4c-0.1-0.1-0.2-0.2-0.3-0.4c-0.5-0.5-0.9-1-1.4-1.6 c-0.4-0.5-0.9-1.1-1.3-1.6c-0.1-0.1-0.2-0.2-0.2-0.3c-0.1-0.1-0.1-0.2-0.2-0.3c-0.6-0.7-1.2-1.4-1.7-2.1c-0.6-0.7-1.1-1.4-1.7-2.1 c-0.6-0.7-1.2-1.5-1.7-2.2c-0.6-0.7-1.1-1.5-1.7-2.3c0,0-0.1-0.1-0.1-0.1c0,0-0.1-0.1-0.1-0.1c-0.5-0.7-1-1.4-1.4-2 c-0.5-0.7-1-1.4-1.4-2.1c-0.7-1-1.4-2-2.1-3.1c-0.7-1-1.3-2.1-2-3.1c-0.4-0.6-0.7-1.1-1.1-1.7c-0.3-0.6-0.7-1.2-1-1.7 c-1-1.6-1.9-3.2-2.8-4.8c-0.9-1.6-1.8-3.3-2.6-4.9c-0.4-0.8-0.8-1.6-1.2-2.4s-0.8-1.6-1.1-2.4c0-0.1-0.1-0.2-0.1-0.3 c0-0.1-0.1-0.2-0.1-0.3c-0.3-0.8-0.7-1.5-1-2.3c-0.3-0.8-0.7-1.6-1-2.3c0-0.1-0.1-0.1-0.1-0.2c0-0.1-0.1-0.2-0.1-0.2 c-0.3-0.7-0.6-1.5-0.9-2.2c-0.3-0.7-0.6-1.5-0.8-2.2c-0.1-0.2-0.1-0.3-0.2-0.5s-0.1-0.3-0.2-0.5c-0.3-0.8-0.6-1.6-0.9-2.3 s-0.6-1.6-0.8-2.4c0,0,0-0.1,0-0.1c0,0,0-0.1,0-0.1c-0.3-0.8-0.5-1.5-0.8-2.3c-0.2-0.8-0.5-1.5-0.7-2.3c-0.3-1.1-0.6-2.2-1-3.3 c-0.3-1.1-0.6-2.2-0.9-3.3c-0.1-0.4-0.2-0.8-0.3-1.3c-0.1-0.4-0.2-0.8-0.3-1.3c-0.1-0.3-0.2-0.7-0.2-1s-0.2-0.7-0.2-1 c-0.2-0.7-0.3-1.4-0.4-2c-0.1-0.7-0.3-1.4-0.4-2c0-0.2-0.1-0.4-0.1-0.5s-0.1-0.4-0.1-0.5c-0.1-0.8-0.3-1.5-0.4-2.3 c-0.1-0.8-0.3-1.5-0.4-2.3c-0.1-0.7-0.2-1.5-0.3-2.2s-0.2-1.4-0.3-2.2c-0.1-1-0.2-1.9-0.3-2.9c-0.1-1-0.2-1.9-0.2-2.9 c-0.1-0.7-0.1-1.3-0.1-2c0-0.7-0.1-1.3-0.1-1.9c0-0.1,0-0.2,0-0.4c0-0.1,0-0.2,0-0.4c0-0.8-0.1-1.5-0.1-2.3c0-0.8,0-1.5,0-2.3 c0-0.2,0-0.5,0-0.7c0-0.2,0-0.5,0-0.7c0-0.9,0-1.8,0-2.6c0-0.9,0-1.8,0.1-2.6c0-0.5,0-1,0.1-1.5c0-0.5,0.1-1,0.1-1.5 c0-0.1,0-0.2,0-0.4c0-0.1,0-0.2,0-0.4c0-0.3,0-0.7,0.1-1c0-0.3,0.1-0.7,0.1-1c0-0.5,0.1-1,0.1-1.4s0.1-1,0.1-1.4 c0-0.4,0.1-0.8,0.1-1.2c0.1-0.4,0.1-0.8,0.2-1.2c0.2-1.2,0.3-2.4,0.5-3.5c0.2-1.2,0.4-2.3,0.6-3.5c0-0.2,0.1-0.5,0.1-0.7 c0-0.2,0.1-0.5,0.1-0.7c0-0.2,0.1-0.4,0.1-0.6s0.1-0.4,0.1-0.5c0.1-0.5,0.2-1,0.3-1.4s0.2-0.9,0.4-1.4c0.1-0.2,0.1-0.5,0.2-0.7 s0.1-0.5,0.2-0.7c0.2-0.9,0.5-1.8,0.7-2.7c0.3-0.9,0.5-1.8,0.8-2.7c0.1-0.4,0.3-0.9,0.4-1.3c0.1-0.4,0.3-0.9,0.4-1.3 c0.2-0.4,0.3-0.9,0.5-1.3c0.2-0.4,0.3-0.9,0.5-1.3c0.1-0.2,0.2-0.4,0.2-0.7c0.1-0.2,0.2-0.4,0.2-0.6c0.1-0.2,0.2-0.4,0.2-0.7 c0.1-0.2,0.2-0.4,0.2-0.7c0.4-0.9,0.7-1.8,1.1-2.7c0.4-0.9,0.8-1.8,1.2-2.7l0,0l0,0c-9.3,7.7-17.9,16.3-25.6,25.6 c-7.8,9.3-14.7,19.2-20.7,29.7c-5.1,9.1-9.6,18.6-13,28.4c-3.4,9.8-5.8,20-6.9,30.5c-1.5,13.8-0.7,27.9,2.9,41.1 c3.6,13.2,10,25.4,19.8,35.2c1.9,1.8,3.8,3.5,5.8,5.2c2,1.7,4,3.3,6.1,4.8c2.1,1.5,4.3,2.8,6.5,4s4.6,2.3,6.9,3.3 c2.4,1,4.9,1.9,7.4,2.7c2.5,0.8,5.1,1.4,7.6,2c2.7,0.6,5.5,1,8.3,1.4c2.8,0.3,5.6,0.6,8.3,0.7c3,0.1,6.1,0.1,9.1,0 s6.1-0.3,9.1-0.6c6.4-0.7,12.9-1.8,19.1-3.4c6.3-1.5,12.5-3.5,18.5-5.9c6.6-2.5,13-5.5,19.3-8.9c6.2-3.4,12.3-7.1,18.1-11.1 c5.6-3.8,10.9-7.9,16.1-12.3c5.2-4.3,10.1-8.9,14.8-13.8c4.7-4.9,9.2-10,13.4-15.4c4.2-5.4,8.2-10.9,11.8-16.7 c1.8-2.9,3.6-5.8,5.3-8.7c1.7-3,3.3-6,4.8-9c1.5-3,3-6.1,4.3-9.2s2.7-6.2,3.9-9.3c0.6-1.6,1.2-3.2,1.8-4.8 c0.6-1.6,1.1-3.2,1.7-4.9c0.5-1.6,1-3.2,1.5-4.8c0.5-1.6,1-3.2,1.4-4.9c0.2-0.6,0.4-1.3,0.6-2c0.2-0.7,0.4-1.3,0.5-2 c0.2-0.6,0.3-1.2,0.5-1.8c0.2-0.6,0.3-1.2,0.5-1.8c0.2-0.5,0.3-1,0.5-1.5s0.3-1,0.5-1.5c0.1-0.4,0.3-0.9,0.4-1.3 c0.1-0.4,0.3-0.8,0.4-1.3c0.1-0.4,0.2-0.7,0.3-1.1s0.2-0.7,0.4-1c0.1-0.3,0.2-0.6,0.3-0.8c0.1-0.3,0.2-0.6,0.3-0.8 c0.1-0.2,0.2-0.4,0.3-0.6s0.2-0.4,0.3-0.6c0.1-0.1,0.1-0.3,0.2-0.4s0.1-0.2,0.2-0.3c0.1-0.1,0.1-0.1,0.2-0.1s0.1-0.1,0.2-0.1 c0.3,0.1,0.5,0.2,0.7,0.3s0.3,0.3,0.5,0.5v0v0c0.1,0.2,0.2,0.5,0.3,0.7c0.1,0.2,0.2,0.5,0.3,0.7c0.1,0.2,0.1,0.4,0.2,0.6 s0.1,0.4,0.2,0.6c0,0.2,0.1,0.3,0.1,0.5c0,0.2,0.1,0.3,0.1,0.5c0,0.1,0,0.2,0.1,0.3c0,0.1,0,0.2,0.1,0.3c0,0.1,0,0.1,0,0.2 c0,0.1,0,0.1,0,0.2c0,0.2,0.1,0.4,0.1,0.6c0,0.2,0.1,0.4,0.1,0.6c0,0.3,0.1,0.5,0.1,0.8s0.1,0.5,0.1,0.8c0,0.4,0.1,0.7,0.1,1.1 c0,0.4,0.1,0.7,0.1,1.1c0,0.4,0.1,0.7,0.1,1.1c0,0.4,0,0.7,0.1,1.1c0.1,1.2,0.1,2.5,0.1,3.7c0,1.2,0,2.5-0.1,3.7 c0,0.3,0,0.6,0,0.9c0,0.3,0,0.6,0,0.9c0,0.5-0.1,1-0.1,1.5c0,0.5-0.1,1-0.1,1.5c0,0.3-0.1,0.6-0.1,1s-0.1,0.6-0.1,1 c0,0.2,0,0.3,0,0.5s0,0.3,0,0.5c0,0.4-0.1,0.8-0.1,1.2c-0.1,0.4-0.1,0.8-0.2,1.2c-0.1,0.4-0.1,0.9-0.2,1.3 c-0.1,0.4-0.1,0.9-0.2,1.3c-0.1,0.4-0.1,0.9-0.2,1.3c-0.1,0.4-0.2,0.9-0.2,1.3c-0.1,0.4-0.1,0.9-0.2,1.3c-0.1,0.4-0.2,0.8-0.3,1.3 c-0.1,0.4-0.2,0.9-0.3,1.3c-0.1,0.4-0.2,0.9-0.3,1.3c-0.1,0.4-0.2,0.7-0.2,1.1c-0.1,0.4-0.2,0.7-0.2,1.1c-0.6,2.6-1.4,5.2-2.2,7.8 c-0.8,2.6-1.7,5.2-2.6,7.7c-0.2,0.6-0.4,1.2-0.7,1.8c-0.2,0.6-0.5,1.2-0.7,1.8c-0.2,0.6-0.5,1.2-0.7,1.9c-0.3,0.6-0.5,1.2-0.8,1.9 c-0.2,0.6-0.5,1.2-0.8,1.8c-0.3,0.6-0.5,1.2-0.8,1.8c-0.3,0.6-0.5,1.2-0.8,1.8c-0.3,0.6-0.5,1.2-0.8,1.8c0,0,0,0.1,0,0.1 c0,0,0,0.1,0,0.1c-0.3,0.6-0.5,1.1-0.8,1.7c-0.3,0.6-0.5,1.1-0.8,1.7c-0.3,0.7-0.7,1.4-1,2.1s-0.7,1.4-1.1,2.1c-0.5,1-1,2-1.5,2.9 s-1.1,1.9-1.6,2.9c-0.4,0.6-0.7,1.3-1.1,1.9s-0.8,1.3-1.1,1.9c-0.3,0.6-0.7,1.1-1,1.7c-0.3,0.6-0.7,1.1-1,1.7 c-0.3,0.6-0.7,1.1-1.1,1.7c-0.4,0.6-0.7,1.1-1.1,1.6c-0.4,0.6-0.7,1.1-1.1,1.6c-0.4,0.5-0.7,1.1-1.1,1.6c-0.4,0.5-0.7,1.1-1.1,1.6 c-0.4,0.5-0.7,1.1-1.1,1.6c-0.8,1.1-1.5,2.1-2.3,3.2c-0.8,1.1-1.6,2.1-2.4,3.1c-0.4,0.5-0.8,1-1.2,1.6c-0.4,0.5-0.8,1-1.2,1.5 c-0.8,1-1.6,1.9-2.3,2.9c-0.8,1-1.6,1.9-2.4,2.8c-1.4,1.5-2.7,3.1-4.1,4.6c-1.4,1.5-2.8,3-4.2,4.4c-0.6,0.7-1.3,1.3-2,2 c-0.7,0.7-1.3,1.3-2,2c-1.7,1.6-3.4,3.2-5.2,4.8c-1.7,1.6-3.5,3.1-5.3,4.6c-0.5,0.4-1,0.8-1.5,1.3c-0.5,0.4-1,0.8-1.5,1.2 c-0.7,0.5-1.3,1.1-2,1.6c-0.7,0.5-1.3,1.1-2,1.6c-1.9,1.5-3.9,2.9-5.8,4.4s-4,2.8-6,4.1c7.6,2.3,15.3,4.6,23.1,6.4 c7.8,1.9,15.6,3.3,23.6,4.1c12.2,1.1,24.7,0.5,36.6-2.2c11.9-2.7,23.2-7.4,32.9-14.6c4-2.9,7.7-6.3,11-10c3.4-3.7,6.4-7.7,9-12 c2.9-4.8,5.3-9.8,7.1-15.1c1.9-5.3,3.2-10.7,4.2-16.2c1.9-11.6,1.8-23.4,0.1-35c-1.7-11.6-5-23.1-9.4-34.1 c-6.2-15.6-14.7-30.2-24.9-43.4c-10.2-13.2-22.2-25-35.5-35.1c-6.8-4.5-13.5-9.1-20.4-13.3c-6.9-4.2-14-8-21.4-11.2 c-6.7-2.8-13.8-5.1-20.9-6.8c-7.2-1.7-14.5-2.8-21.8-3.4c-4.3-0.3-8.6-0.4-12.9-0.3c-4.3,0.1-8.6,0.4-12.9,1.1 c-3.8,0.6-7.6,1.3-11.3,2.3c-3.7,1-7.3,2.2-10.8,3.8c-3.3,1.4-6.6,3.1-9.6,5c-3.1,1.9-6,4-8.8,6.4c-2.8,2.4-5.5,5.1-8,7.9 c-2.5,2.8-4.7,5.8-6.8,8.9c-2.7,4-5,8.3-7,12.7c-2,4.4-3.7,8.9-4.9,13.6c-1.3,4.8-2.2,9.8-2.8,14.8c-0.5,5-0.7,10-0.6,15 c0.2,5.6,0.7,11.3,1.6,16.8c0.9,5.6,2.1,11.1,3.6,16.5c1,3.6,2.1,7.2,3.3,10.7c1.2,3.5,2.5,7,3.9,10.5c1.5,3.7,3.1,7.3,4.9,10.9 c1.7,3.6,3.6,7.1,5.5,10.6c0.9,1.7,1.8,3.3,2.8,5c1,1.7,1.9,3.3,2.9,4.9c1,1.7,2,3.3,3.1,5c1.1,1.7,2.1,3.3,3.2,4.9 c0.4,0.6,0.9,1.3,1.3,1.9s0.9,1.3,1.3,2c0.4,0.6,0.7,1.2,1.1,1.7c0.4,0.6,0.7,1.2,1.1,1.7c0.3,0.5,0.7,1,1,1.5 c0.3,0.5,0.6,1,1,1.5c0.3,0.4,0.5,0.9,0.8,1.3s0.5,0.9,0.8,1.3c0.2,0.4,0.4,0.7,0.6,1.1c0.2,0.4,0.4,0.7,0.6,1.1 c0.2,0.3,0.3,0.6,0.5,0.9s0.3,0.6,0.4,0.9c0.1,0.2,0.2,0.4,0.3,0.7c0.1,0.2,0.2,0.5,0.3,0.7c0.1,0.2,0.1,0.3,0.2,0.5 s0.1,0.3,0.1,0.5c0,0.1,0,0.2,0,0.2c0,0.1,0,0.2,0,0.2c-0.1,0-0.1,0.1-0.2,0.1s-0.2,0-0.2,0.1c-0.1,0-0.1,0-0.2,0 c-0.1,0-0.1,0-0.2,0c0,0,0,0,0,0s0,0-0.1,0c-0.1,0-0.1,0-0.2,0c-0.1,0-0.1,0-0.2,0c-0.2,0-0.4-0.1-0.7-0.2s-0.4-0.2-0.6-0.3 c0,0,0,0-0.1,0c0,0,0,0-0.1,0c-0.3-0.1-0.5-0.3-0.8-0.4c-0.3-0.1-0.5-0.3-0.7-0.4c-0.2-0.1-0.4-0.2-0.6-0.4 c-0.2-0.1-0.4-0.3-0.6-0.4c-0.6-0.4-1.1-0.8-1.7-1.2C236.3,451,235.8,450.6,235.3,450.2z"/>
    <path fill="#657F91" d="M136.2,223.2c1.2,4.9,2,9.9,2.5,14.9s0.6,10.1,0.3,15.2c-0.3,5.1-0.9,10.2-2.1,15.1 c-1.1,5-2.7,9.8-4.8,14.5c-2.1,4.7-4.7,9.1-7.8,13.2c-3.1,4.1-6.6,7.7-10.6,10.9c-4,3.1-8.4,5.8-13.1,7.7c-4.7,2-9.7,3.3-14.8,3.9 c-5.1,0.6-10.3,0.5-15.3-0.3s-9.9-2.2-14.6-4.2c-4.7-2-9.1-4.6-13.2-7.6c-4.1-3-7.9-6.5-11.3-10.3c-3.4-3.8-6.5-7.8-9.2-12.1 s-5.1-8.8-7.1-13.5c-2.1-4.7-3.8-9.4-5.2-14.3c-1.4-4.9-2.5-9.8-3.3-14.8c-0.8-5-1.3-10.1-1.5-15.1s-0.1-10.1,0.4-15.2 c0.4-5,1.1-10.1,2.2-15c1.1-5,2.5-9.9,4.3-14.6c1.8-4.7,4-9.4,6.7-13.7s5.9-8.3,9.6-11.9c3.7-3.5,8-6.4,12.6-8.6 c4.6-2.1,9.6-3.5,14.7-3.9c5.1-0.4,10.2,0.1,15.2,1.3c5,1.2,9.7,3.2,14.2,5.6c4.5,2.4,8.6,5.3,12.6,8.6s7.5,6.8,10.9,10.6 c3.3,3.8,6.4,7.8,9.3,12s5.4,8.6,7.7,13.1c2.3,4.5,4.3,9.2,6.1,13.9S135.1,218.3,136.2,223.2z M114.2,263.5 c0.9-3.5,1.4-7,1.7-10.6s0.3-7.2,0.1-10.7c-0.2-3.6-0.6-7.1-1.3-10.6s-1.5-7-2.5-10.4c-1-3.4-2.2-6.8-3.6-10.1 c-1.4-3.3-2.9-6.5-4.6-9.6c-1.7-3.1-3.6-6.2-5.6-9.1c-2.1-2.9-4.3-5.7-6.7-8.4c-2.4-2.6-5-5.2-7.7-7.4c-2.8-2.3-5.7-4.3-8.9-5.9 c-3.2-1.7-6.6-2.9-10.2-3.5c-3.5-0.6-7.2-0.6-10.7,0.4c-3.5,0.9-6.7,2.7-9.4,5c-2.8,2.3-5.2,5.1-7.1,8.1c-2,3-3.5,6.2-4.8,9.5 s-2.3,6.8-3.1,10.2c-0.8,3.5-1.4,7-1.7,10.5s-0.5,7.1-0.5,10.7c0,3.6,0.3,7.1,0.7,10.6c0.4,3.5,1,7,1.8,10.5 c0.8,3.5,1.7,6.9,2.9,10.3c1.2,3.4,2.5,6.7,4.1,9.9c1.6,3.2,3.3,6.3,5.3,9.3c2,3,4.2,5.8,6.6,8.4c2.4,2.6,5.1,5,8,7.1 c2.9,2.1,6,3.9,9.3,5.2c3.3,1.4,6.8,2.2,10.4,2.6c3.6,0.3,7.2,0.1,10.7-0.8c3.5-0.9,6.8-2.5,9.7-4.5c3-2,5.6-4.5,7.9-7.3 c2.3-2.8,4.1-5.9,5.7-9.1C112.2,270.3,113.3,266.9,114.2,263.5z"/>
  </g>
</svg>