<?xml version="1.0" standalone="no"?>
<!DOCTYPE svg PUBLIC "-//W3C//DTD SVG 20010904//EN"
 "http://www.w3.org/TR/2001/REC-SVG-20010904/DTD/svg10.dtd">
<svg version="1.0" xmlns="http://www.w3.org/2000/svg"
 width="300.000000pt" height="300.000000pt" viewBox="0 0 300.000000 300.000000"
 preserveAspectRatio="xMidYMid meet">
<metadata>
Created by potrace 1.10, written by Peter Selinger 2001-2011
</metadata>
<g transform="translate(0.000000,300.000000) scale(0.050000,-0.050000)"
fill="#000000" stroke="none">
<path d="M1855 4984 c-72 -4 -115 -15 -116 -30 -25 -473 9 -1973 46 -2038 70
-125 339 -184 444 -97 31 26 44 179 16 184 -8 1 -54 4 -102 6 -126 5 -122 -23
-123 1004 0 1058 13 980 -165 971z"/>
<path d="M4795 4984 c-63 -3 -115 -15 -116 -25 0 -10 0 -491 0 -1069 0 -577 0
-1059 0 -1071 1 -13 52 -19 136 -15 l135 6 3 329 c1 181 10 332 20 335 9 3
164 -147 344 -334 l326 -340 148 0 c228 0 241 -26 -210 431 l-347 352 336 326
c379 369 390 391 191 391 -142 0 -139 2 -518 -385 -138 -141 -259 -253 -268
-250 -10 3 -17 287 -16 647 3 725 14 681 -164 672z"/>
<path d="M110 4956 c-6 -14 -8 -503 -5 -1086 l5 -1060 108 0 c103 0 110 3 128
60 11 33 22 63 24 66 3 3 46 -21 95 -55 268 -181 618 -147 823 81 214 239 258
767 88 1085 -90 169 -303 293 -502 293 -118 0 -283 -54 -398 -130 -98 -65 -95
-79 -101 380 l-5 380 -125 6 c-89 4 -128 -2 -135 -20z m856 -879 c304 -160
307 -902 4 -1045 -121 -58 -355 -39 -482 39 l-98 61 -6 389 c-7 494 -8 492
216 566 60 20 324 12 366 -10z"/>
<path d="M2525 4907 c-89 -19 -137 -170 -85 -266 48 -91 236 -92 300 -1 102
143 -29 305 -215 267z"/>
<path d="M3710 4308 c-97 -29 -240 -93 -316 -142 -62 -40 -93 -18 -94 67 0 49
-35 67 -127 67 -118 -1 -114 30 -108 -761 l5 -729 130 0 130 0 10 579 10 578
120 60 c169 84 412 99 497 32 108 -85 116 -135 113 -697 -2 -281 -2 -524 -2
-538 2 -19 37 -24 137 -20 l135 6 5 587 c6 627 -2 701 -88 803 -98 116 -359
167 -557 108z"/>
<path d="M2470 4279 c-7 -11 -13 -346 -13 -745 l0 -724 136 0 137 0 5 729 c4
569 0 732 -20 744 -37 24 -230 21 -245 -4z"/>
<path d="M5245 2331 c-202 -46 -427 -176 -381 -221 7 -7 104 -2 217 11 260 30
497 18 570 -30 85 -56 39 -310 -133 -726 -52 -126 8 -129 124 -5 268 286 419
879 243 954 -103 45 -475 54 -640 17z"/>
<path d="M20 2214 c0 -73 421 -397 797 -614 1206 -693 2773 -750 4042 -147
461 219 637 359 554 442 -36 37 -15 42 -422 -104 -325 -117 -543 -174 -1031
-269 -783 -154 -1867 -63 -2790 235 -291 93 -969 397 -1039 465 -29 27 -111
22 -111 -8z"/>
</g>
</svg>
