<?xml version="1.0" standalone="no"?>
<!DOCTYPE svg PUBLIC "-//W3C//DTD SVG 20010904//EN"
 "http://www.w3.org/TR/2001/REC-SVG-20010904/DTD/svg10.dtd">
<svg version="1.0" xmlns="http://www.w3.org/2000/svg"
 width="160.000000pt" height="160.000000pt" viewBox="0 0 160.000000 160.000000"
 preserveAspectRatio="xMidYMid meet">

<g transform="translate(0.000000,160.000000) scale(0.100000,-0.100000)"
fill="#cccccc" stroke="none">
<path d="M664 1301 c-187 -64 -305 -228 -305 -423 0 -184 55 -232 189 -167 25
13 63 38 84 57 48 43 50 79 7 142 -91 135 -92 199 -4 216 54 10 187 0 220 -16
16 -8 46 -37 66 -64 44 -58 67 -72 133 -81 65 -9 90 -35 81 -83 -19 -99 -93
-185 -193 -222 -40 -15 -94 -23 -200 -30 -130 -7 -150 -11 -200 -37 -82 -42
-117 -101 -117 -199 0 -57 4 -76 19 -93 33 -36 68 -27 112 29 58 74 116 100
224 100 145 0 255 45 346 142 230 243 120 635 -205 734 -61 19 -194 17 -257
-5z"/>
<path d="M813 1024 c-3 -8 2 -23 11 -32 15 -15 17 -15 32 0 21 21 11 48 -16
48 -11 0 -23 -7 -27 -16z"/>
</g>
</svg>
