<?xml version="1.0" encoding="utf-8"?>
<!-- Designed by Vexels.com - 2019 All Rights Reserved - https://vexels.com/terms-and-conditions/  -->
<svg version="1.1" id="Layer_1" xmlns="http://www.w3.org/2000/svg" xmlns:xlink="http://www.w3.org/1999/xlink" x="0px" y="0px"
	 viewBox="0 0 1200 1200" enable-background="new 0 0 1200 1200" xml:space="preserve">
<path fill="#193441" d="M1078.169,50.089c-1.184-0.227-2.284,0.005-3.402,0.402c-4.099,1.458-8.231,2.823-12.317,4.315
	c-3.541,1.293-7.103,2.562-10.539,4.102c-15.356,6.878-30.972,13.151-46.287,20.133c-9.241,4.213-18.473,8.412-27.507,13.057
	c-6.848,3.52-13.575,7.232-20.009,11.461c-8.732,5.739-17.433,11.525-26.154,17.28c-16.295,10.752-31.204,23.184-45.101,36.88
	c-5.476,5.397-11.214,10.534-16.921,15.691c-6.463,5.84-12.938,11.66-19.081,17.845c-5.319,5.356-10.764,10.586-16.178,15.846
	c-2.915,2.832-5.851,5.645-8.835,8.405c-3.301,3.053-6.52,6.26-10.32,8.666c-7.504,4.749-14.505,10.132-21.294,15.837
	c-4.738,3.981-8.571,8.632-11.463,14.087c-0.543,1.024-1.111,2.044-1.773,2.993c-4.899,7.023-9.767,14.068-14.76,21.024
	c-5.161,7.191-10.574,14.198-15.461,21.589c-2.966,4.486-6.306,8.707-10.155,12.478c-4.511,4.421-8.109,9.519-10.901,15.122
	c-2.883,5.788-4.382,11.968-3.74,18.525c0.198,2.023,0.45,4.046,0.519,6.073c0.4,11.757,0.307,23.507-0.575,35.246
	c-0.36,4.795-1.499,9.448-2.367,14.153c-0.248,1.343-0.926,2.417-1.904,3.338c-0.633,0.597-1.253,1.212-1.844,1.852
	c-2.757,2.983-5.523,5.958-8.246,8.971c-3.696,4.09-7.269,8.297-11.055,12.301c-4.686,4.956-9.51,9.784-14.325,14.618
	c-5.851,5.872-12.044,11.315-19.146,15.695c-2.674,1.649-5.475,2.558-8.509,3.048c-1.568,0.254-3.191,0.476-4.646,1.064
	c-4.031,1.628-8.081,3.259-11.949,5.23c-4.275,2.179-8.646,4.104-13.088,5.889c-2.859,1.148-5.899,1.455-8.921,1.79
	c-0.848,0.094-1.75-0.014-2.592-0.191c-9.667-2.041-19.174-4.582-28.208-8.706c-6.068-2.771-12.193-5.424-18.349-7.995
	c-9.1-3.802-18.252-7.479-27.377-11.218c-4.838-1.983-9.777-3.674-14.839-4.973c-9.585-2.462-19.35-3.759-29.219-4.349
	c-2.314-0.138-4.622-0.385-6.931-0.601c-1.197-0.112-1.769-0.992-2.042-1.99c-0.224-0.82-0.303-1.727-0.223-2.575
	c0.273-2.887,0.485-5.795,1.01-8.641c1.367-7.411,2.496-14.888,5.377-21.932c0.383-0.938,0.686-1.915,0.941-2.895
	c1.657-6.374,4.561-12.216,7.639-17.984c1.639-3.072,3.397-6.091,4.864-9.244c3.312-7.115,7.066-13.986,11.046-20.74
	c1.253-2.125,2.518-4.243,3.788-6.358c3.509-5.849,7.018-11.697,10.537-17.54c4.717-7.833,9.528-15.596,15.198-22.806
	c2.595-3.3,4.886-6.85,7.184-10.371c2.06-3.157,3.947-6.428,5.897-9.656c0.685-1.134,0.012-2.493-1.31-2.498
	c-1.144-0.004-2.327,0.072-3.426,0.363c-2.401,0.635-4.586,1.795-6.66,3.154c-8.496,5.569-16.981,11.154-25.486,16.709
	c-6.216,4.06-11.942,8.731-17.476,13.668c-9.216,8.22-17.816,17.074-26.61,25.728c-1.445,1.422-2.765,2.981-4.06,4.545
	c-4.355,5.257-8.461,10.701-12.225,16.402c-2.479,3.755-4.967,7.506-7.548,11.191c-4.251,6.067-8.247,12.293-11.98,18.69
	c-3.665,6.279-7.815,12.231-12.212,18.008c-5.293,6.954-11.272,13.284-17.905,18.97c-14.012,12.012-28.659,23.195-44.154,33.234
	c-4.379,2.838-8.903,5.467-13.464,8.007c-4.815,2.681-9.76,5.129-14.636,7.703c-7.456,3.935-15.181,7.232-23.14,10.016
	c-5.337,1.868-10.61,3.921-15.898,5.926c-8.203,3.109-15.706,7.473-22.699,12.743c-6.5,4.898-12.628,10.236-18.613,15.743
	c-1.812,1.667-3.443,3.524-5.582,4.832c-0.984,0.602-1.739,1.516-2.153,2.661c-0.288,0.797,0.277,1.97,1.119,1.998
	c0.998,0.033,2.047,0.068,2.993-0.193c1.954-0.54,3.884-1.198,5.77-1.943c12.139-4.797,24.259-9.642,36.393-14.451
	c9.854-3.906,19.898-7.138,30.284-9.407c14.457-3.158,28.988-5.869,43.594-8.213c7.3-1.172,14.606-2.294,21.806-4.04
	c3.358-0.814,6.805-1.266,10.901-2.006c-0.893,0.818-1.227,1.233-1.654,1.5c-7.879,4.931-16.034,9.359-24.417,13.37
	c-5.233,2.504-10.461,5.016-15.697,7.513c-0.515,0.246-1.05,0.434-1.23,1.05c-0.01,0.002-0.021,0.002-0.032,0.004
	c-0.007,0.008-0.016,0.013-0.023,0.021c-1.756-0.26-3.108,0.633-4.444,1.574c-0.57,0.078-1.172,0.063-1.705,0.248
	c-8.501,2.947-16.861,6.234-24.892,10.319c-1.034,0.525-2.052,1.123-3.145,1.484c-5.521,1.824-10.742,4.38-16.135,6.507
	c-8.417,3.319-16.104,7.988-23.9,12.464c-2.136,1.226-4.162,2.651-6.194,4.049c-1.194,0.821-2.353,1.709-3.426,2.68
	c-0.629,0.57-1.094,1.337-1.565,2.06c-0.468,0.718,0.052,1.842,0.92,2.08c0.416,0.114,0.842,0.257,1.266,0.265
	c2.032,0.043,4.068,0.073,6.043-0.537c3.738-1.156,7.489-2.27,11.209-3.481c4.962-1.615,9.854-3.461,14.857-4.932
	c9.878-2.904,19.87-5.398,29.937-7.562c8.646-1.857,17.287-3.763,26.097-4.738c2.593-0.287,5.175-0.686,7.757-1.069
	c6.455-0.957,12.902-1.975,19.362-2.893c9.188-1.308,18.407-2.413,27.573-3.856c9.171-1.443,18.222-3.521,27.182-5.962
	c10.389-2.831,20.439-6.529,29.924-11.686c3.452-1.877,6.767-3.947,9.864-6.366c1.373-1.072,2.753-2.135,4.141-3.187
	c0.82-0.621,1.718-1.041,2.769-1.166c5.917-0.705,11.83-1.391,17.764-0.146c1.702,0.357,3.419,0.639,5.119,1.004
	c5.672,1.218,11.375,2.377,16.8,4.467c5.566,2.145,11.265,3.805,17.047,5.194c3.804,0.914,7.654,1.634,11.485,2.434
	c4.024,0.84,7.731,2.298,11.037,4.869c3.088,2.402,6.415,4.495,9.623,6.745c0.687,0.482,1.313,1.052,1.957,1.574
	c-0.288,0.399-0.412,0.693-0.633,0.86c-3.795,2.85-6.502,6.579-8.754,10.697c-5.303,9.695-11.449,18.845-18.041,27.702
	c-0.777,1.044-1.641,2.034-2.554,2.962c-3.985,4.049-8.279,7.712-13.272,10.496c-2.154,1.201-4.265,2.477-6.406,3.702
	c-6.171,3.531-12.342,7.06-18.523,10.573c-1.386,0.788-2.808,1.512-4.223,2.25c-1.93,1.005-3.907,1.925-5.796,3.001
	c-8.833,5.036-18.172,9.063-27.207,13.696c-0.644,0.331-1.326,0.588-1.986,0.889c-9.923,4.518-20.328,7.718-30.624,11.215
	c-3.981,1.352-7.993,2.616-11.945,4.048c-6.679,2.422-13.3,5.009-19.987,7.409c-5.777,2.073-11.214,4.811-16.212,8.326
	c-9.268,6.517-18.182,13.481-26.428,21.289c-6.434,6.093-12.626,12.416-18.763,18.801c-3.827,3.982-7.518,8.083-10.889,12.452
	c-6.031,7.818-12.396,15.357-18.686,22.965c-7.82,9.458-16.593,17.858-26.332,25.263c-8.317,6.324-16.748,12.498-25.147,18.714
	c-3.272,2.422-6.436,4.951-9.24,7.924c-2.815,2.986-4.547,6.716-7,9.946c-0.148,0.195-0.159,0.572-0.093,0.828
	c0.063,0.242,0.293,0.597,0.483,0.62c0.551,0.067,1.211,0.171,1.666-0.059c2.068-1.047,4.085-2.196,6.112-3.323
	c1.774-0.987,3.525-2.012,5.31-2.978c0.519-0.281,1.096-0.339,1.492,0.548c-1.383,3.853-2.191,7.96-1.985,12.226
	c0.051,1.066-0.473,1.929-1.023,2.807c-2.31,3.689-4.537,7.431-6.873,11.104c-1.634,2.57-3.35,5.091-5.107,7.579
	c-4.939,6.993-10.061,13.85-14.631,21.11c-3.009,4.78-6.275,9.456-9.912,13.769c-4.979,5.903-9.451,12.138-13.626,18.601
	c-2.758,4.27-5.562,8.499-8.619,12.562c-1.132,1.505-2.154,3.099-3.148,4.701c-2.526,4.069-5.026,8.155-7.503,12.254
	c-4.809,7.956-10.077,15.614-15.495,23.155c-4.24,5.903-8.248,11.947-11.99,18.161c-3.229,5.362-6.985,10.336-10.642,15.39
	c-1.955,2.702-3.947,5.384-5.76,8.18c-2.999,4.627-5.787,9.391-8.808,14.003c-4.154,6.342-7.587,13.039-10.324,20.097
	c-3.52,9.076-6.166,18.439-8.736,27.806c-2.804,10.219-4.437,20.706-6.107,31.162c-1.396,8.737-2.486,17.522-3.771,26.278
	c-1.266,8.627-2.043,17.302-2.188,26.011c-0.169,10.16-0.063,20.324-0.068,30.485c0,1.161-0.043,2.336,0.109,3.48
	c0.362,2.727,0.774,5.45,1.283,8.152c0.181,0.959,0.55,1.97,1.931,2.348c0.786-0.892,1.712-1.803,2.465-2.84
	c0.677-0.931,1.181-1.99,1.733-3.008c1.797-3.314,3.42-6.735,5.401-9.935c4.894-7.901,10.239-15.502,15.878-22.891
	c3.791-4.968,7.725-9.84,12.41-13.992c6.299-5.583,12.734-11.014,19.177-16.431c3.008-2.529,6.362-4.563,9.934-6.229
	c8.47-3.952,16.175-9.091,23.363-15.042c3.578-2.961,7.238-5.823,10.831-8.767c4.49-3.68,8.977-7.365,13.414-11.109
	c6.657-5.616,13.27-11.284,19.899-16.934c5.524-4.708,11.099-9.358,16.549-14.15c6.443-5.667,13.181-10.933,20.336-15.667
	c3.147-2.082,6.284-4.18,9.446-6.239c13.622-8.87,27.235-17.753,40.884-26.581c7.433-4.807,14.91-9.547,22.406-14.256
	c4.426-2.781,8.769-5.673,12.871-8.918c3.529-2.792,7.036-5.611,10.588-8.375c8.821-6.863,17.716-13.633,26.48-20.568
	c11.724-9.279,23.418-18.596,34.997-28.053c8.881-7.252,17.747-14.54,26.097-22.41c13.549-12.77,28.105-24.297,43.166-35.206
	c4.352-3.153,8.861-6.08,13.592-8.629c6.002-3.235,12.036-6.413,18.114-9.504c15.649-7.956,31.34-15.825,47.498-22.723
	c5.202-2.221,10.323-4.632,15.49-6.935c7.817-3.483,15.611-7.019,23.472-10.398c5.996-2.577,12.066-4.983,18.132-7.391
	c4.338-1.723,8.44-3.841,12.25-6.549c4.749-3.375,9.87-6.096,15.212-8.41c6.657-2.884,13.407-5.533,20.284-7.847
	c12.374-4.165,24.951-7.654,37.508-11.206c8.651-2.447,17.337-4.753,26.156-6.544c7.966-1.618,16-2.788,24.054-3.829
	c3.164-0.409,6.347-0.675,9.527-0.954c4.625-0.407,9.271-0.625,13.876-1.19c3.761-0.462,7.516-0.651,11.291-0.647
	c5.95,0.008,11.901,0.092,17.851,0.051c1.796-0.012,3.414,0.404,5.034,1.113c2.122,0.93,4.263,1.847,6.465,2.56
	c4.038,1.307,7.822,3.104,11.303,5.513c4.654,3.22,9.281,6.481,13.872,9.791c1.044,0.752,1.961,1.716,2.817,2.688
	c2.59,2.941,5.024,6.024,7.702,8.88c2.774,2.96,5.563,5.967,8.708,8.504c3.855,3.11,8.407,5.151,13.089,6.772
	c3.485,1.207,7.038,1.406,10.716,0.622c4.902-1.044,9.351-3.06,13.615-5.589c0.242-0.143,0.422-0.388,0.637-0.577
	c0.39-0.344,0.292-1.317-0.203-1.46c-1.799-0.523-3.586-1.189-5.427-1.441c-3.881-0.533-7.056-2.385-10.794-5.139
	c2.201,0.388,3.569,0.682,4.951,0.863c6.49,0.855,13.035,0.738,19.556,1.034c0.855,0.039,1.73-0.137,2.58-0.297
	c0.787-0.148,1.201-1.538,0.665-2.17c-0.371-0.438-0.744-0.909-1.212-1.225c-1.803-1.215-3.626-2.402-5.475-3.544
	c-1.603-0.99-3.259-1.895-4.879-2.858c-0.49-0.291-0.94-0.653-0.407-1.344c0.406-0.032,0.837-0.109,1.266-0.094
	c3.5,0.126,6.954-0.343,10.404-0.817c0.703-0.097,1.399-0.334,2.066-0.591c0.843-0.325,1.066-1.612,0.336-2.161
	c-1.735-1.307-3.447-2.672-5.307-3.782c-6.398-3.814-13.296-6.451-20.476-8.365c-3.783-1.008-7.59-1.923-11.378-2.911
	c-2.392-0.624-4.7-1.479-6.886-2.654c-2.04-1.097-4.028-2.295-6.322-2.864c-0.67-0.166-1.282-0.659-1.863-1.081
	c-8.042-5.847-17.07-9.844-26.061-13.91c-2.641-1.194-5.317-2.318-7.917-3.596c-5.34-2.626-10.736-5.104-16.271-7.303
	c-8.665-3.443-16.755-8.04-24.441-13.258c-4.814-3.268-9.105-7.247-11.06-13.071c-0.183-0.543-0.529-1.03-0.79-1.549
	c-4.213-8.354-3.987-18.636,0.682-27.302c4.581-0.055,9.036-1.34,13.507-2.55c0.979-0.265,1.974-0.473,2.958-0.724
	c5.109-1.303,10.287-1.787,15.54-1.254c2.452,0.249,4.892,0.61,7.342,0.879c5.335,0.585,10.666,1.232,15.924,2.307
	c8.391,1.716,16.766,3.482,25.4,3.296c0.287-0.006,0.585,0.133,0.862,0.092c1.43-0.208,2.884-0.341,4.273-0.712
	c1.747-0.468,2.389-2.32,1.397-3.798c-0.481-0.717-1.059-1.377-1.648-2.012c-5.344-5.752-11.029-11.129-17.411-15.735
	c-3.67-2.649-6.532-6.166-9.802-9.244c-0.824-0.776-1.332-1.889-1.973-2.856c-1.122-1.693-2.21-3.409-3.355-5.087
	c-2.862-4.194-5.756-8.367-8.614-12.564c-0.31-0.456-0.683-0.971-0.149-1.932c0.835-0.464,1.944-1.116,3.084-1.708
	c3.747-1.942,7.397-4.066,10.595-6.821c4.971-4.284,10.512-7.746,15.934-11.378c6.584-4.412,13.794-7.368,21.578-8.918
	c4.122-0.821,8.266-1.573,12.334-2.613c3.202-0.819,6.285-0.919,9.412,0.151c0.822,0.281,1.68,0.453,2.512,0.705
	c9.862,2.991,19.95,5.074,29.975,7.4c7.2,1.67,14.481,2.995,21.72,4.499c2.696,0.561,5.324,1.314,7.885,2.389
	c1.989,0.834,4.127,1.384,6.249,1.806c2.017,0.402,3.908,1.045,5.759,1.906c2.762,1.284,5.541,2.533,8.336,3.743
	c2.795,1.21,5.693,2.204,8.414,3.559c7.154,3.563,14.602,6.422,21.987,9.437c2.014,0.822,4.024,1.662,6.075,2.38
	c1.078,0.377,2.231,0.621,3.368,0.727c1.408,0.132,2.413-1.391,1.857-2.696c-0.224-0.528-0.501-1.055-0.858-1.499
	c-0.636-0.789-1.341-1.524-2.035-2.265c-2.182-2.331-4.383-4.644-6.542-6.996c-0.223-0.242-0.216-0.696-0.365-1.229
	c0.763,0.036,1.35-0.019,1.896,0.103c3.112,0.699,6.205,1.482,9.322,2.154c2.975,0.641,5.961,1.246,8.964,1.739
	c1.419,0.233,2.886,0.204,4.332,0.222c0.82,0.01,1.534-1.149,1.154-1.95c-0.362-0.764-0.808-1.56-1.419-2.123
	c-5.775-5.323-11.804-10.31-18.87-13.886c-0.292-0.148-0.453-0.557-0.941-1.188c1.981,0.193,3.567,0.287,5.133,0.515
	c2.152,0.312,4.282,0.781,6.436,1.065c0.828,0.109,1.705-0.061,2.548-0.184c0.489-0.072,0.898-0.999,0.688-1.421
	c-0.191-0.385-0.384-0.774-0.623-1.13c-1.419-2.109-3.533-3.402-5.603-4.75c-8.957-5.834-18.878-8.846-29.433-9.803
	c-5.921-0.537-11.875-0.73-17.817-1.027c-1.599-0.08-3.158-0.243-4.732-0.585c-7.652-1.661-15.331-3.192-22.984-4.848
	c-2.831-0.612-5.604-1.487-8.426-2.147c-1.588-0.371-2.469-1.325-3.031-2.787c-0.623-1.622-1.265-3.253-2.082-4.781
	c-2.268-4.245-3.931-8.723-5.366-13.299c-0.954-3.045-1.754-6.151-2.908-9.119c-3.352-8.617-4.736-17.646-5.621-26.751
	c-0.631-6.496-0.925-13.027-0.838-19.57c0.24-17.997,0.415-35.995,0.613-53.993c0.034-3.049,0.094-6.097,0.074-9.146
	c-0.052-7.704,0.627-15.373,1.127-23.047c0.339-5.21,0.962-10.402,1.508-15.597c0.697-6.637,1.421-13.272,2.177-19.903
	c0.97-8.505,2.054-16.998,2.962-25.509c1.001-9.387,2.287-18.718,4.528-27.902c2.581-10.58,5.41-21.089,9.582-31.171
	c3.217-7.774,6.606-15.478,9.955-23.197c1.732-3.993,3.583-7.935,5.31-11.93c7.253-16.782,14.511-33.561,22.298-50.105
	c5.377-11.425,10.87-22.792,17.336-33.658c0.89-1.496,1.732-3.023,2.536-4.567c6.974-13.399,14.636-26.396,22.722-39.149
	c1.398-2.205,2.808-4.416,4.023-6.724c3.798-7.21,8.153-14.055,13.067-20.554c0.873-1.155,1.65-2.386,2.41-3.62
	C1079.856,51.542,1079.199,50.287,1078.169,50.089z"/>
</svg>
