<svg xmlns="http://www.w3.org/2000/svg" viewBox="0 0 32 40" fill="none" transform="rotate(-90)"><path fill-rule="evenodd" clip-rule="evenodd" d="M12.173 2.249a1 1 0 0 1 .31.989c-.236.967-.362 1.98-.362 3.025 0 6.885 5.477 12.436 12.196 12.436 1.523 0 2.98-.285 4.322-.804a1 1 0 0 1 1.332 1.17C28.435 25.336 22.861 30 16.196 30 8.339 30 2 23.52 2 15.565c0-6.16 3.795-11.427 9.152-13.498a1 1 0 0 1 1.02.182m-1.974 2.485C6.502 6.866 4 10.914 4 15.564 4 22.45 9.477 28 16.196 28c5.065 0 9.424-3.153 11.263-7.657a14 14 0 0 1-3.142.356c-7.858 0-14.196-6.48-14.196-14.436q0-.775.078-1.53" fill="#000"/></svg>