<svg version="1.1" id="Layer_1" xmlns="http://www.w3.org/2000/svg" xmlns:xlink="http://www.w3.org/1999/xlink" x="0px" y="0px"
	 width="100%" viewBox="0 0 128 128" enable-background="new 0 0 128 128" xml:space="preserve">
<path fill="#000000" opacity="1.000000" stroke="none" 
	d="
M1.000000,54.399994 
	C2.514437,50.507412 2.594883,46.538517 4.884040,43.270180 
	C8.663755,37.873699 13.800482,36.330692 19.657764,39.111515 
	C28.948442,43.522381 35.145428,58.001122 31.868044,67.688484 
	C30.027615,73.128471 26.563293,77.017143 20.741041,77.987129 
	C14.919888,78.956940 10.481378,76.217987 6.798827,71.911560 
	C3.517567,68.074417 2.867286,63.187580 1.154751,58.329330 
	C1.000000,56.933331 1.000000,55.866661 1.000000,54.399994 
M25.578693,56.010899 
	C24.439735,52.687374 22.965813,49.555901 20.319212,47.132263 
	C15.377886,42.607235 10.616102,43.837879 8.627248,50.235096 
	C7.580270,53.602734 7.601963,57.050537 8.349138,60.518330 
	C9.870773,67.580551 15.418390,72.736671 20.256784,71.489792 
	C25.045517,70.255714 27.426182,63.858486 25.578693,56.010899 
z"/>
<path fill="#000000" opacity="1.000000" stroke="none" 
	d="
M89.759186,65.173920 
	C98.405739,72.252090 104.259827,80.692978 106.487953,91.428413 
	C108.474960,101.002106 107.132118,109.710289 99.471733,116.508278 
	C91.679459,123.423317 82.487732,123.963333 73.255081,120.641640 
	C68.552223,118.949654 64.759720,118.518272 60.134605,120.758972 
	C54.690948,123.396255 48.620049,124.047173 42.567169,122.914215 
	C26.617989,119.928909 18.657751,104.828011 24.206976,87.821312 
	C30.116678,69.709862 46.409126,58.026138 63.614819,56.100445 
	C73.242058,55.022945 81.779236,59.280869 89.759186,65.173920 
M100.618317,104.015915 
	C104.670288,85.469933 87.031921,65.262238 68.541649,62.490818 
	C55.217117,60.493671 46.186745,68.661812 46.165512,82.052353 
	C46.153046,89.914368 49.623425,96.484314 53.426224,102.995239 
	C54.268757,104.437775 56.130329,105.590210 54.992985,108.434853 
	C49.058483,104.681900 45.938931,99.176888 43.146172,93.342628 
	C40.269108,87.332245 40.614586,80.847084 40.760315,73.033325 
	C32.287319,81.960251 28.014540,90.852295 29.317562,101.895569 
	C30.172195,109.138687 35.496399,115.163124 42.502571,116.460182 
	C46.594723,117.217766 50.793728,117.239235 54.873356,115.996155 
	C69.112953,111.657295 78.429840,102.180321 83.776352,88.468880 
	C84.666901,86.184990 84.747948,83.404640 87.889862,80.730408 
	C88.732315,96.328384 80.950966,106.358604 70.950333,115.351028 
	C83.909370,121.190063 95.641747,116.858490 100.618317,104.015915 
z"/>
<path fill="#000000" opacity="1.000000" stroke="none" 
	d="
M52.501335,10.311400 
	C62.841400,19.423754 66.513512,34.927788 61.308174,46.452515 
	C55.781158,58.689430 41.403908,60.525761 32.937229,50.076183 
	C25.017820,40.302048 25.664297,21.289946 34.230114,12.054058 
	C39.287868,6.600650 44.846020,5.993908 52.501335,10.311400 
M44.929092,50.484245 
	C49.658092,50.805874 52.787720,48.359634 55.027699,44.521946 
	C59.873230,36.220245 56.981754,21.741518 49.342480,15.921121 
	C46.010674,13.382602 42.515667,13.249815 39.291496,15.911501 
	C29.127129,24.302608 32.119331,44.848148 44.929092,50.484245 
z"/>
<path fill="#000000" opacity="1.000000" stroke="none" 
	d="
M81.510315,56.751099 
	C72.826340,54.960140 68.543236,49.114090 67.142555,41.502857 
	C65.225174,31.083883 67.289024,21.279739 74.582764,13.099082 
	C81.742958,5.068210 92.118484,5.624936 97.650650,14.768310 
	C104.150597,25.511192 104.592361,36.822163 98.496826,47.966393 
	C94.988060,54.381340 89.228920,57.235977 81.510315,56.751099 
M84.015442,14.266941 
	C74.237160,18.682037 69.438377,33.127975 74.334061,43.457508 
	C76.141830,47.271774 78.806770,50.299927 83.240814,50.554657 
	C87.635353,50.807125 90.853271,48.249306 93.055832,44.693867 
	C98.169930,36.438560 97.790855,27.941473 93.542656,19.483038 
	C91.774834,15.963198 89.045570,13.718391 84.015442,14.266941 
z"/>
<path fill="#000000" opacity="1.000000" stroke="none" 
	d="
M127.230103,48.259720 
	C129.230118,56.262501 128.570175,63.550640 124.291107,70.236122 
	C120.128784,76.739220 113.363640,79.499786 107.298317,77.426727 
	C101.134277,75.319931 96.647392,68.424484 97.116493,61.265224 
	C97.540382,54.796017 99.757774,48.955280 104.115150,44.017361 
	C112.655403,34.339245 122.137253,35.914139 127.230103,48.259720 
M104.379463,56.013706 
	C104.048531,57.634502 103.414207,59.261292 103.446098,60.874916 
	C103.527252,64.980682 104.459023,68.851234 108.511009,70.970802 
	C111.656265,72.616066 114.342026,71.199081 116.691681,69.179260 
	C121.819878,64.770950 123.674614,53.915386 120.426086,47.979359 
	C118.140976,43.803802 114.843491,43.092690 110.952164,45.951591 
	C107.743835,48.308716 106.002220,51.678856 104.379463,56.013706 
z"/>
</svg>