<?xml version="1.0" standalone="no"?>
<!DOCTYPE svg PUBLIC "-//W3C//DTD SVG 20010904//EN"
 "http://www.w3.org/TR/2001/REC-SVG-20010904/DTD/svg10.dtd">
<svg version="1.0" xmlns="http://www.w3.org/2000/svg"
 width="208.000000pt" height="184.000000pt" viewBox="0 0 208.000000 184.000000"
 preserveAspectRatio="xMidYMid meet">

<g transform="translate(0.000000,184.000000) scale(0.100000,-0.100000)"
fill="#000000" stroke="none">
<path d="M635 1812 c-123 -58 -203 -256 -176 -437 27 -185 138 -305 280 -305
234 1 341 314 199 581 -32 62 -97 133 -141 156 -47 24 -117 26 -162 5z m156
-86 c109 -74 168 -284 123 -435 -18 -63 -85 -135 -133 -146 -117 -25 -223 75
-251 238 -22 122 18 266 91 332 33 30 46 35 87 35 34 0 58 -7 83 -24z"/>
<path d="M1307 1815 c-168 -59 -280 -363 -207 -559 27 -70 89 -142 145 -167
91 -42 219 -10 285 69 129 156 128 439 -2 587 -68 77 -139 100 -221 70z m158
-107 c59 -61 88 -139 89 -248 1 -120 -23 -189 -89 -257 -54 -56 -95 -71 -161
-58 -49 9 -116 77 -137 140 -36 106 -12 268 54 368 44 67 91 97 153 97 44 0
53 -4 91 -42z"/>
<path d="M187 1336 c-50 -18 -82 -48 -107 -102 -88 -181 1 -448 165 -494 93
-26 181 11 232 97 25 44 28 57 28 143 0 86 -3 101 -32 162 -69 147 -190 228
-286 194z m96 -75 c38 -15 94 -78 122 -137 71 -150 20 -315 -98 -318 -66 -2
-117 37 -157 118 -28 57 -33 76 -33 143 0 154 67 232 166 194z"/>
<path d="M1810 1341 c-82 -25 -155 -97 -203 -199 -29 -60 -32 -76 -32 -162 0
-86 3 -99 28 -143 51 -86 139 -123 232 -97 182 51 266 371 139 537 -40 52
-111 80 -164 64z m88 -87 c105 -74 80 -337 -41 -421 -60 -42 -119 -38 -163 10
-61 67 -69 176 -19 282 27 56 84 121 119 135 34 14 80 11 104 -6z"/>
<path d="M935 1043 c-46 -12 -201 -86 -254 -122 -134 -91 -262 -274 -291 -418
-19 -89 -8 -208 25 -282 91 -202 351 -268 590 -150 l61 30 65 -31 c216 -101
446 -31 535 162 26 57 29 72 28 168 -1 112 -11 154 -65 265 -80 164 -262 317
-438 369 -52 15 -209 21 -256 9z m244 -82 c184 -57 359 -229 422 -414 105
-304 -95 -531 -407 -462 -113 25 -114 25 -49 75 142 110 246 296 244 439 l0
56 -28 -80 c-34 -98 -51 -133 -107 -211 -81 -115 -201 -205 -340 -255 -82 -30
-221 -31 -285 -2 -176 79 -228 288 -124 508 18 39 45 86 59 105 31 41 128 142
132 137 2 -1 -4 -22 -12 -46 -37 -108 -23 -244 36 -365 33 -66 96 -148 140
-182 l25 -19 -16 25 c-108 172 -142 265 -143 395 0 79 3 97 27 147 33 66 100
130 160 152 61 21 192 20 266 -3z"/>
</g>
</svg>
