<?xml version="1.0" encoding="UTF-8" standalone="no"?>
<svg
   version="1.1"
   id="svg1"
   width="48.00"
   height="48.0"
   viewBox="0 0 48.0 48.0"
   sodipodi:docname="Sure_Petcare_Logo_Paw_®.eps"
   xmlns:inkscape="http://www.inkscape.org/namespaces/inkscape"
   xmlns:sodipodi="http://sodipodi.sourceforge.net/DTD/sodipodi-0.dtd"
   xmlns="http://www.w3.org/2000/svg"
   xmlns:svg="http://www.w3.org/2000/svg">
  <defs
     id="defs1" />
  <sodipodi:namedview
     id="namedview1"
     pagecolor="#ffffff"
     bordercolor="#000000"
     borderopacity="0.25"
     inkscape:showpageshadow="2"
     inkscape:pageopacity="0.0"
     inkscape:pagecheckerboard="0"
     inkscape:deskcolor="#d1d1d1">
    <inkscape:page
       x="0"
       y="0"
       inkscape:label="1"
       id="page1"
       width="48.0"
       height="48.0"
       margin="0"
       bleed="0" />
  </sodipodi:namedview>
  <g
     id="g1"
     inkscape:groupmode="layer"
     inkscape:label="1">
    <g
       id="group-R5">
      <path
         id="path13"
         d="m 342.941,399.031 c 0.036,4.485 -0.378,9 -1.371,13.379 -0.992,4.36 -2.554,8.688 -5.019,12.457 -2.473,3.77 -6.012,7.071 -10.446,8.25 -4.414,1.184 -9.121,0.09 -13.132,-1.996 -4.016,-2.07 -7.504,-5.094 -10.508,-8.43 -3.024,-3.332 -5.617,-7.086 -7.75,-11.027 -2.152,-3.926 -3.875,-8.098 -5.16,-12.422 -1.285,-4.328 -2.121,-8.742 -2.364,-13.222 -0.257,-4.485 0.067,-9.055 1.161,-13.415 1.097,-4.359 2.921,-8.597 5.789,-12.144 2.863,-3.559 6.687,-6.273 11.136,-7.438 4.426,-1.144 9.121,-0.601 13.309,1.094 4.187,1.707 7.867,4.504 10.93,7.785 3.07,3.266 5.574,7.11 7.519,11.137 1.949,4.016 3.406,8.34 4.379,12.699 0.973,4.383 1.477,8.813 1.527,13.293 z m 13.762,6.547 c 0.524,-6.336 0.277,-12.801 -0.715,-19.109 -0.992,-6.305 -2.711,-12.438 -5.281,-18.324 -2.59,-5.911 -5.937,-11.348 -10.285,-16.125 -4.324,-4.782 -9.59,-8.758 -15.461,-11.293 -5.891,-2.539 -12.402,-3.633 -18.852,-2.852 -6.441,0.766 -12.543,3.387 -17.546,7.352 -4.985,3.961 -8.93,9.277 -11.575,15.148 -2.633,5.875 -3.992,12.215 -4.324,18.641 -0.328,6.445 0.352,12.754 1.793,18.937 1.461,6.188 3.715,12.266 6.621,17.93 2.879,5.648 6.457,11.035 10.695,15.828 4.227,4.797 9.145,9.055 14.774,12.125 5.629,3.062 12.09,4.902 18.519,4.379 6.426,-0.5 12.508,-3.442 17.2,-7.871 4.691,-4.446 8.011,-10.114 10.3,-16.086 2.293,-5.957 3.598,-12.352 4.137,-18.68"
         style="fill:#5c788b;fill-opacity:1;fill-rule:nonzero;stroke:none"
         transform="matrix(0.13333333,0,0,-0.13333333,0,71.16)" />
      <path
         id="path14"
         d="m 270.586,461.406 c 0.656,11.688 -1.066,23.539 -5.563,34.324 -2.242,5.387 -5.195,10.583 -9.222,14.875 -4.035,4.309 -9.297,7.645 -15.242,8.204 -5.942,0.57 -11.778,-1.793 -16.489,-5.25 -4.722,-3.477 -8.613,-8.028 -11.832,-12.981 -3.226,-4.93 -5.73,-10.199 -7.695,-15.687 -1.941,-5.489 -3.332,-11.258 -4.082,-17.039 -1.492,-11.559 -0.609,-23.594 4.152,-34.422 2.383,-5.418 5.739,-10.391 10.164,-14.246 4.45,-3.86 10.114,-6.532 15.934,-7.051 5.82,-0.524 11.797,1.058 16.887,4.047 5.09,2.988 9.297,7.297 12.578,12.125 3.301,4.832 5.75,10.289 7.433,15.843 1.672,5.579 2.645,11.418 2.977,17.258 z m 12.691,21.141 c 1.379,-7.594 1.883,-15.445 1.45,-23.16 -0.457,-7.715 -1.809,-15.375 -4.293,-22.758 -2.489,-7.367 -6.032,-14.336 -10.875,-20.449 -4.832,-6.133 -10.926,-11.293 -17.95,-14.649 -7.015,-3.347 -15.031,-4.843 -22.738,-4.062 -3.859,0.398 -7.68,1.351 -11.297,2.812 -3.609,1.461 -6.953,3.367 -10.054,5.719 -6.188,4.672 -11.161,10.941 -14.704,17.875 -3.527,6.934 -5.679,14.488 -6.683,22.168 -1.012,7.68 -0.891,15.395 0.152,23.105 1.063,7.735 2.988,15.207 5.805,22.434 2.808,7.246 6.465,14.141 11.015,20.379 4.571,6.234 10.09,11.898 16.762,15.969 6.656,4.082 14.473,6.355 22.309,5.574 7.836,-0.801 15.097,-4.637 20.797,-9.902 5.699,-5.27 10.078,-11.903 13.379,-18.922 3.281,-7.02 5.554,-14.539 6.925,-22.133"
         style="fill:#5c788b;fill-opacity:1;fill-rule:nonzero;stroke:none"
         transform="matrix(0.13333333,0,0,-0.13333333,0,71.16)" />
      <path
         id="path15"
         d="m 155.762,433.43 c 4.758,10.828 5.64,22.863 4.148,34.422 -0.746,5.781 -2.133,11.55 -4.082,17.039 -1.965,5.488 -4.465,10.757 -7.676,15.687 -3.23,4.953 -7.109,9.504 -11.836,12.981 -4.722,3.457 -10.562,5.82 -16.503,5.25 -5.942,-0.559 -11.208,-3.895 -15.235,-8.204 -4.031,-4.292 -6.9882,-9.488 -9.2264,-14.875 -4.5,-10.785 -6.2188,-22.636 -5.5586,-34.324 0.3476,-5.84 1.3047,-11.679 2.9883,-17.258 1.664,-5.554 4.1367,-11.011 7.4177,-15.843 3.285,-4.828 7.489,-9.137 12.578,-12.125 5.106,-2.989 11.071,-4.571 16.887,-4.047 5.82,0.519 11.484,3.191 15.934,7.051 4.445,3.855 7.8,8.828 10.164,14.246 z m 18.328,35.718 c 1.039,-7.71 1.164,-15.425 0.156,-23.105 -1.012,-7.68 -3.144,-15.234 -6.687,-22.168 -3.547,-6.934 -8.52,-13.203 -14.7,-17.875 -3.093,-2.352 -6.445,-4.258 -10.058,-5.719 -3.613,-1.461 -7.438,-2.414 -11.293,-2.812 -7.695,-0.781 -15.723,0.715 -22.746,4.062 -7.016,3.356 -13.1136,8.516 -17.9417,14.649 -4.832,6.113 -8.3945,13.082 -10.8789,20.449 -2.4805,7.383 -3.8398,15.043 -4.2734,22.758 -0.4492,7.715 0.0547,15.566 1.4258,23.16 1.371,7.594 3.6484,15.113 6.9492,22.133 3.2851,7.019 7.6601,13.652 13.3593,18.922 5.6957,5.265 12.9607,9.101 20.7927,9.902 7.836,0.781 15.657,-1.492 22.313,-5.574 6.668,-4.071 12.195,-9.735 16.765,-15.969 4.567,-6.238 8.2,-13.133 11.012,-20.379 2.817,-7.227 4.762,-14.699 5.805,-22.434"
         style="fill:#5c788b;fill-opacity:1;fill-rule:nonzero;stroke:none"
         transform="matrix(0.13333333,0,0,-0.13333333,0,71.16)" />
      <path
         id="path16"
         d="m 148.359,254.883 c -0.418,0.332 -0.836,0.676 -1.25,1.043 -0.211,0.156 -0.437,0.347 -0.644,0.539 -0.695,0.609 -1.391,1.215 -2.047,1.84 -0.352,0.332 -0.68,0.644 -1.012,0.976 -1.582,1.543 -3.109,3.157 -4.586,4.844 -0.14,0.156 -0.261,0.297 -0.379,0.453 -0.589,0.66 -1.148,1.32 -1.707,1.996 -0.101,0.106 -0.187,0.211 -0.277,0.332 -0.727,0.867 -1.437,1.754 -2.137,2.657 -0.726,0.937 -1.441,1.875 -2.132,2.832 -0.036,0.054 -0.075,0.105 -0.125,0.156 -0.61,0.851 -1.215,1.719 -1.805,2.609 -0.891,1.281 -1.738,2.586 -2.539,3.906 -0.469,0.711 -0.903,1.446 -1.321,2.172 -1.199,2.016 -2.308,4.067 -3.367,6.168 -0.488,0.992 -0.976,1.981 -1.445,2.973 -0.051,0.117 -0.102,0.226 -0.156,0.348 -0.438,0.968 -0.871,1.941 -1.285,2.933 -0.036,0.09 -0.086,0.192 -0.122,0.278 -0.382,0.921 -0.75,1.828 -1.093,2.765 -0.09,0.192 -0.157,0.379 -0.227,0.57 -0.363,0.973 -0.711,1.961 -1.058,2.954 -0.02,0.035 -0.02,0.089 -0.04,0.125 -0.328,0.957 -0.64,1.925 -0.917,2.898 -0.418,1.371 -0.801,2.73 -1.168,4.102 -0.137,0.539 -0.258,1.058 -0.379,1.597 -0.106,0.434 -0.211,0.867 -0.293,1.305 -0.192,0.848 -0.368,1.703 -0.524,2.551 -0.054,0.226 -0.101,0.457 -0.14,0.679 -0.172,0.957 -0.348,1.911 -0.485,2.879 -0.14,0.926 -0.261,1.828 -0.367,2.75 -0.156,1.215 -0.277,2.45 -0.363,3.664 -0.071,0.832 -0.125,1.649 -0.172,2.469 0,0.156 -0.02,0.293 -0.02,0.449 -0.05,0.973 -0.07,1.93 -0.089,2.887 0,0.313 0,0.625 0,0.938 0,1.113 0.019,2.222 0.074,3.335 0.015,0.645 0.051,1.286 0.101,1.926 0,0.157 0.02,0.317 0.035,0.473 0.02,0.434 0.055,0.867 0.086,1.281 0.055,0.613 0.125,1.223 0.176,1.828 0.051,0.489 0.117,0.973 0.192,1.473 0.191,1.496 0.418,2.977 0.714,4.449 0.047,0.313 0.102,0.625 0.168,0.922 0.055,0.246 0.09,0.469 0.145,0.695 0.121,0.61 0.258,1.2 0.414,1.789 0.066,0.317 0.137,0.625 0.227,0.942 0.277,1.125 0.609,2.254 0.933,3.367 0.18,0.559 0.367,1.113 0.543,1.672 0.192,0.555 0.383,1.105 0.594,1.648 0.101,0.278 0.203,0.559 0.308,0.817 0.106,0.277 0.207,0.554 0.317,0.836 0.445,1.16 0.933,2.308 1.457,3.433 l -0.055,0.024 C 107.426,350.66 97.4727,338.852 89.9492,325.574 83.4688,314.125 78.8125,301.586 77.4063,288.449 c -1.8594,-17.355 1.9414,-35.758 14.2968,-48.125 2.418,-2.207 4.8477,-4.398 7.5039,-6.254 2.641,-1.84 5.527,-3.375 8.496,-4.605 3.074,-1.27 6.254,-2.262 9.488,-2.934 3.442,-0.746 6.95,-1.148 10.457,-1.304 3.825,-0.157 7.649,-0.02 11.454,0.363 8.128,0.851 16.136,2.851 23.75,5.805 8.339,3.21 16.203,7.539 23.574,12.593 7.019,4.832 13.566,10.301 19.476,16.418 5.977,6.149 11.309,12.961 15.926,20.188 2.328,3.613 4.469,7.347 6.399,11.172 1.925,3.804 3.644,7.695 5.195,11.66 0.762,2.012 1.492,4.047 2.168,6.097 0.644,2 1.254,4.032 1.824,6.082 0.246,0.813 0.469,1.649 0.695,2.485 0.207,0.726 0.418,1.473 0.645,2.207 0.187,0.625 0.379,1.266 0.57,1.906 0.16,0.539 0.332,1.082 0.524,1.598 0.14,0.457 0.297,0.89 0.453,1.324 0.121,0.348 0.246,0.691 0.398,1.039 0.106,0.246 0.227,0.488 0.328,0.734 0.09,0.157 0.157,0.329 0.282,0.434 0.066,0.066 0.156,0.102 0.222,0.156 0.332,-0.09 0.543,-0.297 0.711,-0.554 v -0.024 c 0.145,-0.293 0.266,-0.57 0.387,-0.883 0.086,-0.242 0.156,-0.468 0.226,-0.711 0.047,-0.211 0.102,-0.418 0.137,-0.625 0.031,-0.125 0.055,-0.265 0.086,-0.382 0.02,-0.075 0.035,-0.141 0.035,-0.207 0.055,-0.266 0.086,-0.524 0.121,-0.786 0.055,-0.332 0.09,-0.656 0.125,-0.988 0.051,-0.469 0.086,-0.937 0.133,-1.406 0.039,-0.469 0.074,-0.938 0.09,-1.406 0.09,-1.547 0.09,-3.114 0.035,-4.68 0,-0.359 -0.015,-0.746 -0.035,-1.106 -0.035,-0.644 -0.09,-1.269 -0.137,-1.917 -0.035,-0.399 -0.066,-0.793 -0.121,-1.196 -0.019,-0.211 -0.035,-0.398 -0.054,-0.59 -0.047,-0.488 -0.122,-0.972 -0.192,-1.461 -0.066,-0.535 -0.156,-1.078 -0.242,-1.617 -0.07,-0.535 -0.172,-1.078 -0.277,-1.613 -0.086,-0.559 -0.192,-1.094 -0.317,-1.617 -0.101,-0.535 -0.222,-1.074 -0.344,-1.617 -0.101,-0.45 -0.21,-0.883 -0.312,-1.336 -0.816,-3.301 -1.844,-6.571 -3.008,-9.782 -0.273,-0.761 -0.555,-1.507 -0.851,-2.273 -0.293,-0.781 -0.625,-1.563 -0.938,-2.348 -0.312,-0.765 -0.644,-1.527 -0.973,-2.293 -0.332,-0.746 -0.675,-1.511 -1.023,-2.261 -0.02,-0.036 -0.035,-0.067 -0.055,-0.118 -0.328,-0.699 -0.66,-1.41 -1.004,-2.101 -0.421,-0.887 -0.871,-1.754 -1.339,-2.625 -0.625,-1.235 -1.301,-2.469 -1.981,-3.688 -0.449,-0.793 -0.918,-1.593 -1.406,-2.394 -0.414,-0.715 -0.852,-1.406 -1.285,-2.102 -0.434,-0.711 -0.887,-1.406 -1.336,-2.086 -0.457,-0.691 -0.907,-1.371 -1.375,-2.066 -0.469,-0.676 -0.942,-1.356 -1.41,-2.016 -0.954,-1.355 -1.946,-2.675 -2.95,-3.976 -0.523,-0.66 -1.023,-1.305 -1.547,-1.949 -0.972,-1.215 -1.984,-2.415 -2.988,-3.594 -1.707,-1.949 -3.457,-3.836 -5.25,-5.684 -0.816,-0.832 -1.664,-1.664 -2.519,-2.48 -2.133,-2.071 -4.325,-4.047 -6.582,-5.961 -0.645,-0.539 -1.286,-1.063 -1.93,-1.582 -0.832,-0.676 -1.668,-1.34 -2.52,-1.996 -2.418,-1.875 -4.918,-3.668 -7.468,-5.356 9.625,-2.933 19.336,-5.695 29.425,-6.613 15.364,-1.395 31.536,1.492 43.786,10.594 4.988,3.722 9.332,8.476 12.613,13.863 3.648,6.016 5.957,12.809 7.125,19.703 2.43,14.613 -0.348,29.711 -5.891,43.559 -7.855,19.648 -21.301,36.757 -38.066,49.476 -8.516,5.719 -17.024,11.434 -26.391,15.391 -8.496,3.582 -17.707,5.738 -26.949,6.43 -5.434,0.402 -10.871,0.316 -16.258,-0.454 -4.777,-0.691 -9.504,-1.91 -13.937,-3.816 -4.203,-1.828 -8.129,-4.258 -11.621,-7.215 -3.579,-3.055 -6.688,-6.652 -9.313,-10.578 -3.351,-5.074 -5.922,-10.684 -7.523,-16.539 -1.649,-6.098 -2.274,-12.457 -2.098,-18.777 0.203,-7.114 1.441,-14.161 3.316,-21.008 1.254,-4.551 2.782,-9.02 4.571,-13.379 1.914,-4.641 4.113,-9.176 6.531,-13.57 1.148,-2.098 2.344,-4.184 3.598,-6.235 1.265,-2.105 2.601,-4.187 3.961,-6.254 0.539,-0.816 1.074,-1.636 1.617,-2.465 0.469,-0.734 0.937,-1.46 1.406,-2.195 0.414,-0.64 0.816,-1.281 1.215,-1.93 0.332,-0.55 0.66,-1.105 0.992,-1.664 0.258,-0.453 0.535,-0.921 0.781,-1.39 0.207,-0.367 0.414,-0.727 0.59,-1.114 0.121,-0.273 0.242,-0.55 0.367,-0.847 0.082,-0.192 0.168,-0.383 0.168,-0.574 0,-0.106 -0.011,-0.207 -0.031,-0.313 -0.09,-0.055 -0.191,-0.086 -0.277,-0.105 -0.071,-0.016 -0.157,-0.036 -0.227,-0.036 -0.019,0 -0.035,0 -0.066,0 -0.09,0 -0.157,0.02 -0.246,0.036 -0.278,0.05 -0.555,0.175 -0.817,0.312 -0.039,0.02 -0.051,0.031 -0.086,0.055 -0.332,0.176 -0.644,0.344 -0.957,0.535 -0.258,0.141 -0.504,0.312 -0.75,0.469 -0.711,0.468 -1.39,0.976 -2.047,1.496 z m -0.761,134.539 c 2.742,1.34 5.59,2.484 8.507,3.457 0.02,0.019 0.036,0.019 0.055,0.019 0.68,0.227 1.352,0.434 2.031,0.645 1.114,0.328 2.227,0.641 3.356,0.918 0.644,0.156 1.281,0.312 1.93,0.453 0.781,0.172 1.582,0.348 2.375,0.504 0.503,0.09 1.011,0.191 1.531,0.258 0.574,0.109 1.144,0.211 1.734,0.277 0.438,0.07 0.856,0.145 1.285,0.192 0.629,0.089 1.254,0.175 1.895,0.23 0.23,0.035 0.437,0.051 0.664,0.066 0.676,0.071 1.34,0.137 2.012,0.192 0.191,0.015 0.386,0.035 0.578,0.035 0.605,0.055 1.215,0.09 1.82,0.121 0.418,0.02 0.856,0.035 1.27,0.055 0.836,0.035 1.683,0.051 2.539,0.051 1.664,0.015 3.316,-0.036 4.965,-0.125 1.027,-0.047 2.05,-0.122 3.058,-0.204 0.746,-0.054 1.481,-0.14 2.207,-0.23 1.215,-0.117 2.414,-0.273 3.613,-0.469 1.461,-0.222 2.918,-0.484 4.379,-0.762 0.071,-0.019 0.121,-0.035 0.192,-0.035 1.39,-0.297 2.761,-0.59 4.117,-0.922 0.019,-0.015 0.031,-0.015 0.031,-0.015 0.735,-0.195 1.446,-0.383 2.16,-0.574 0.727,-0.192 1.442,-0.403 2.153,-0.606 0.504,-0.14 1.008,-0.301 1.496,-0.453 0.484,-0.141 0.969,-0.297 1.437,-0.473 0.438,-0.132 0.891,-0.277 1.325,-0.433 2.207,-0.746 4.394,-1.563 6.546,-2.465 0.524,-0.211 1.047,-0.434 1.563,-0.66 1.047,-0.434 2.07,-0.887 3.078,-1.371 0.836,-0.387 1.648,-0.785 2.465,-1.18 0.937,-0.457 1.859,-0.926 2.781,-1.414 0.317,-0.156 0.641,-0.324 0.953,-0.5 0.715,-0.367 1.426,-0.766 2.121,-1.184 0.508,-0.257 1.008,-0.539 1.493,-0.836 1.046,-0.589 2.07,-1.195 3.078,-1.82 1.961,-1.199 3.89,-2.449 5.785,-3.754 1.828,-1.285 3.633,-2.601 5.437,-3.906 3.91,-3.18 7.821,-6.363 11.52,-9.801 0.277,-0.223 0.558,-0.488 0.816,-0.765 1.598,-1.543 3.164,-3.145 4.692,-4.778 1.304,-1.39 2.57,-2.812 3.82,-4.269 1.043,-1.219 2.051,-2.453 3.043,-3.703 0.801,-1.012 1.582,-2.036 2.359,-3.055 0.614,-0.82 1.219,-1.653 1.809,-2.488 0.57,-0.821 1.148,-1.633 1.703,-2.469 1.496,-2.203 2.918,-4.465 4.254,-6.758 1.41,-2.398 2.75,-4.844 3.98,-7.328 1.391,-2.766 2.676,-5.578 3.856,-8.445 1.285,-3.129 2.433,-6.309 3.441,-9.54 1.028,-3.25 1.899,-6.546 2.606,-9.871 0.699,-3.281 1.234,-6.597 1.601,-9.933 0.348,-3.285 0.516,-6.586 0.516,-9.891 -0.016,-3.265 -0.223,-6.527 -0.625,-9.777 -0.414,-3.195 -1.004,-6.344 -1.82,-9.469 -0.11,-0.469 -0.243,-0.922 -0.379,-1.371 -0.489,-1.719 -1.047,-3.402 -1.672,-5.094 -0.488,-1.301 -0.992,-2.601 -1.547,-3.871 -0.016,-0.055 -0.035,-0.125 -0.07,-0.176 -0.489,-1.074 -0.993,-2.132 -1.528,-3.179 -1.113,-2.133 -2.343,-4.203 -3.703,-6.18 -1.371,-1.984 -2.844,-3.879 -4.445,-5.664 -1.617,-1.809 -3.317,-3.512 -5.121,-5.109 -1.813,-1.618 -3.703,-3.11 -5.688,-4.5 -1.98,-1.395 -4.027,-2.676 -6.133,-3.84 -2.082,-1.149 -4.238,-2.192 -6.445,-3.11 -2.152,-0.902 -4.359,-1.707 -6.598,-2.363 -2.226,-0.66 -4.468,-1.219 -6.726,-1.652 -1.492,-0.278 -2.988,-0.524 -4.5,-0.711 -1.563,-0.192 -3.145,-0.332 -4.723,-0.438 -1.843,-0.101 -3.687,-0.133 -5.527,-0.121 -2.102,0.02 -4.223,0.145 -6.324,0.332 -2.344,0.227 -4.707,0.539 -7.035,0.973 -0.536,0.09 -1.059,0.191 -1.598,0.293 -2.106,0.453 -4.207,0.957 -6.274,1.547 -2.328,0.66 -4.636,1.425 -6.914,2.277 -2.261,0.856 -4.48,1.793 -6.668,2.816 -1.449,0.661 -2.867,1.352 -4.281,2.067 -0.012,0.019 -0.047,0.019 -0.066,0.035 -1.196,0.59 -2.364,1.215 -3.512,1.859 -0.973,0.555 -1.941,1.149 -2.898,1.719 l -0.438,-0.125 c -0.379,-0.242 -0.777,-0.469 -1.18,-0.711 -13.132,-7.66 -27.621,-13.062 -42.707,-14.629 -21.625,-2.222 -44.4879,3.391 -59.6402,19.063 -1.7696,2.012 -3.5391,4.012 -5.1915,6.097 -0.0195,0.036 -0.039,0.051 -0.0742,0.082 -0.9023,1.219 -1.75,2.489 -2.5508,3.774 -1.0625,1.703 -2.0312,3.461 -2.9375,5.246 -0.8671,1.738 -1.6484,3.512 -2.3632,5.316 -0.918,2.332 -1.7188,4.707 -2.3946,7.106 -0.6445,2.332 -1.164,4.676 -1.5976,7.039 -0.4024,2.258 -0.7149,4.551 -0.9219,6.844 -0.293,3.23 -0.418,6.5 -0.3477,9.746 0.0665,3.008 0.2774,5.996 0.6446,8.965 0.082,0.679 0.1719,1.359 0.2773,2.031 0.1914,1.34 0.4141,2.66 0.6602,3.965 0,0.066 0.0156,0.136 0.0351,0.207 0.1211,0.64 0.2422,1.265 0.3789,1.89 0.1758,0.836 0.3672,1.672 0.5782,2.489 0.082,0.379 0.1679,0.761 0.2773,1.144 0.1367,0.61 0.293,1.199 0.4688,1.789 0.1718,0.59 0.3476,1.199 0.5156,1.793 0.1758,0.606 0.3476,1.215 0.543,1.821 0.5703,1.804 1.1953,3.597 1.8398,5.386 0.7812,2.071 1.6172,4.102 2.5,6.117 0.7695,1.719 1.5625,3.403 2.3984,5.086 0.3321,0.7 0.6953,1.375 1.0469,2.075 0.3789,0.757 0.793,1.507 1.2149,2.254 0.3125,0.589 0.6406,1.167 0.9921,1.738 0.3789,0.691 0.7813,1.39 1.1954,2.07 0.6601,1.094 1.3164,2.168 1.996,3.246 0.6993,1.063 1.3907,2.121 2.1055,3.18 4.1485,6.098 8.7539,11.863 13.8281,17.219 0.2774,0.332 0.6094,0.675 0.9375,1.004 0.9024,0.921 1.8047,1.843 2.7422,2.73 0.9254,0.902 1.8634,1.793 2.8204,2.656 0.949,0.867 1.906,1.723 2.879,2.559 1.023,0.863 2.051,1.73 3.098,2.566 1.214,0.992 2.464,1.949 3.714,2.887 1.481,1.094 2.973,2.172 4.481,3.191 1.808,1.223 3.648,2.399 5.508,3.532 2.121,1.265 4.273,2.488 6.445,3.629 2.434,1.269 4.902,2.468 7.437,3.543 2.379,1.011 4.817,1.917 7.247,2.82 1.406,0.828 2.847,1.597 4.328,2.289"
         style="fill:#5c788b;fill-opacity:1;fill-rule:nonzero;stroke:none"
         transform="matrix(0.13333333,0,0,-0.13333333,0,71.16)" />
      <path
         id="path17"
         d="m 72.0195,372.605 c 1.0938,4.36 1.4258,8.93 1.1836,13.415 -0.2617,4.48 -1.0937,8.894 -2.3828,13.222 -1.2851,4.324 -3.0039,8.496 -5.1445,12.422 -2.1524,3.941 -4.7383,7.695 -7.7617,11.027 -3.0078,3.336 -6.4805,6.36 -10.4922,8.43 -4.0156,2.086 -8.7422,3.18 -13.1563,1.996 -4.414,-1.179 -7.9531,-4.48 -10.4375,-8.25 -2.4687,-3.769 -4.0156,-8.097 -5.0078,-12.457 -0.9883,-4.379 -1.4258,-8.894 -1.3906,-13.379 0.0547,-4.48 0.5586,-8.91 1.5273,-13.293 0.9766,-4.359 2.4375,-8.683 4.3828,-12.699 1.961,-4.027 4.4649,-7.871 7.5235,-11.137 3.0547,-3.281 6.7383,-6.078 10.9258,-7.785 4.1875,-1.695 8.8789,-2.238 13.3281,-1.094 4.4258,1.165 8.25,3.879 11.1172,7.438 2.8672,3.547 4.707,7.785 5.7851,12.144 z m 13.8985,25.348 c 1.457,-6.183 2.1367,-12.492 1.789,-18.937 -0.332,-6.426 -1.6836,-12.766 -4.3242,-18.641 -2.6406,-5.871 -6.5859,-11.187 -11.5742,-15.148 -5,-3.965 -11.0977,-6.586 -17.543,-7.352 -6.4453,-0.781 -12.9648,0.313 -18.8515,2.852 -5.875,2.535 -11.1368,6.511 -15.4649,11.293 -4.3242,4.777 -7.6758,10.214 -10.26951,16.125 -2.58594,5.886 -4.30469,12.019 -5.29688,18.324 -0.99218,6.308 -1.23047,12.773 -0.6914,19.109 0.51953,6.328 1.82422,12.723 4.11328,18.68 2.29691,5.972 5.61331,11.64 10.30471,16.086 4.6914,4.429 10.7695,7.371 17.2031,7.871 6.4453,0.523 12.9023,-1.317 18.5195,-4.379 5.625,-3.07 10.543,-7.328 14.7852,-12.125 4.2187,-4.793 7.7969,-10.18 10.6836,-15.828 2.8984,-5.664 5.1601,-11.742 6.6172,-17.93"
         style="fill:#5c788b;fill-opacity:1;fill-rule:nonzero;stroke:none"
         transform="matrix(0.13333333,0,0,-0.13333333,0,71.16)" />
    </g>
  </g>
</svg>
